<svg width="28" height="19" viewBox="0 0 28 19" fill="none" xmlns="http://www.w3.org/2000/svg">
<g clip-path="url(#clip0_179527_10266)">
<path d="M0.125 2.5625C0.125 1.28534 1.16034 0.25 2.4375 0.25H25.5625C26.8397 0.25 27.875 1.28534 27.875 2.5625V16.4375C27.875 17.7147 26.8397 18.75 25.5625 18.75H2.4375C1.16034 18.75 0.125 17.7147 0.125 16.4375V2.5625Z" fill="white"/>
<path fill-rule="evenodd" clip-rule="evenodd" d="M6.29199 17.2082H21.7087V1.7915H6.29199V17.2082Z" fill="#FFFFFE"/>
<path fill-rule="evenodd" clip-rule="evenodd" d="M14.029 7.37637H12.8578L13.4434 5.96493L14.029 7.37637ZM14.7994 9.207H16.1245L14.2201 4.89252H12.7038L10.7993 9.207H12.0936L12.4511 8.34413H14.4357L14.7994 9.207ZM20.5437 9.207H21.7087V4.89252H19.8966L18.9288 7.57971L17.9673 4.89252H16.1245V9.207H17.2894V6.18686L18.3988 9.207H19.4342L20.5437 6.18062V9.207ZM13.6287 13.149V12.4772H16.0632V11.5034H13.6287V10.8315H16.1248V9.83307H12.4515V14.1475H16.1248V13.149H13.6287ZM20.5238 11.9798L21.7087 13.2402V10.7299L20.5238 11.9798ZM20.162 14.1475H21.7087L19.6627 11.978L21.7087 9.83307H20.1866L18.9233 11.2137L17.6719 9.83307H16.1248L18.1588 11.9903L16.1248 14.1475H17.6289L18.8985 12.7546L20.162 14.1475ZM21.7087 17.2082V14.7653H19.8488L18.8912 13.7065L17.9287 14.7653H11.7965V9.83053H9.81732L12.2723 4.27464H14.64L15.4851 6.178V4.27464H18.4158L18.9247 5.70895L19.4369 4.27464H21.7087V1.7915H6.29199V17.2082H21.7087Z" fill="#006FAC"/>
<path fill-rule="evenodd" clip-rule="evenodd" d="M25.5625 1.02083H2.4375C1.58606 1.02083 0.895833 1.71106 0.895833 2.5625V16.4375C0.895833 17.289 1.58606 17.9792 2.4375 17.9792H25.5625C26.414 17.9792 27.1042 17.289 27.1042 16.4375V2.5625C27.1042 1.71106 26.414 1.02083 25.5625 1.02083ZM2.4375 0.25C1.16034 0.25 0.125 1.28534 0.125 2.5625V16.4375C0.125 17.7147 1.16034 18.75 2.4375 18.75H25.5625C26.8397 18.75 27.875 17.7147 27.875 16.4375V2.5625C27.875 1.28534 26.8397 0.25 25.5625 0.25H2.4375Z" fill="#DDDDDD"/>
</g>
<defs>
<clipPath id="clip0_179527_10266">
<rect width="27.75" height="18.5" fill="white" transform="translate(0.125 0.25)"/>
</clipPath>
</defs>
</svg>
