<svg width="28" height="19" viewBox="0 0 28 19" fill="none" xmlns="http://www.w3.org/2000/svg">
<g clip-path="url(#clip0_179527_10327)">
<path d="M25.6413 0.231445H2.6978C1.56812 0.231445 0.652344 1.14723 0.652344 2.2769V16.1468C0.652344 17.2765 1.56812 18.1922 2.6978 18.1922H25.6413C26.771 18.1922 27.6868 17.2765 27.6868 16.1468V2.2769C27.6868 1.14723 26.771 0.231445 25.6413 0.231445Z" fill="white"/>
<path d="M25.5625 0.770833C25.9714 0.770833 26.3635 0.933258 26.6526 1.22238C26.9417 1.5115 27.1042 1.90362 27.1042 2.3125V16.1875C27.1042 16.5964 26.9417 16.9885 26.6526 17.2776C26.3635 17.5667 25.9714 17.7292 25.5625 17.7292H2.4375C2.02862 17.7292 1.6365 17.5667 1.34738 17.2776C1.05826 16.9885 0.895833 16.5964 0.895833 16.1875V2.3125C0.895833 1.90362 1.05826 1.5115 1.34738 1.22238C1.6365 0.933258 2.02862 0.770833 2.4375 0.770833H25.5625ZM25.5625 0H2.4375C1.82475 0.00183003 1.23762 0.246055 0.804337 0.679337C0.371055 1.11262 0.12683 1.69975 0.125 2.3125L0.125 16.1875C0.12683 16.8002 0.371055 17.3874 0.804337 17.8207C1.23762 18.2539 1.82475 18.4982 2.4375 18.5H25.5625C26.1752 18.4982 26.7624 18.2539 27.1957 17.8207C27.6289 17.3874 27.8732 16.8002 27.875 16.1875V2.3125C27.8732 1.69975 27.6289 1.11262 27.1957 0.679337C26.7624 0.246055 26.1752 0.00183003 25.5625 0Z" fill="#DDDDDD"/>
<path d="M4.06308 13.2947C4.06308 13.6446 4.31314 13.6853 4.5356 13.6853C4.71851 13.6922 4.90073 13.6593 5.06968 13.5889C5.23864 13.5185 5.39031 13.4123 5.51423 13.2776C5.63815 13.1429 5.73136 12.9829 5.78743 12.8086C5.84351 12.6344 5.8611 12.4501 5.83902 12.2684C5.853 12.0762 5.82614 11.8833 5.76021 11.7023C5.69428 11.5213 5.59078 11.3563 5.45651 11.2181C5.32224 11.08 5.16024 10.9719 4.98117 10.9008C4.80211 10.8298 4.61003 10.7974 4.41757 10.8059C4.2309 10.8059 4.14503 10.8192 4.06308 10.8241V13.2947ZM3.61787 11.1644C3.61787 10.756 3.40453 10.7828 3.20038 10.7785V10.6605C3.3774 10.6691 3.55889 10.6691 3.73636 10.6691C3.92704 10.6691 4.18592 10.6605 4.52226 10.6605C4.74742 10.6382 4.97475 10.6623 5.19021 10.7314C5.40568 10.8004 5.6047 10.9129 5.77497 11.0619C5.94525 11.2109 6.08316 11.3932 6.1802 11.5976C6.27723 11.802 6.33132 12.0241 6.33912 12.2502C6.33912 12.7002 6.07558 13.831 4.46753 13.831C4.23616 13.831 4.02237 13.822 3.809 13.822C3.60472 13.822 3.40453 13.8262 3.20038 13.831V13.7128C3.47265 13.6853 3.60476 13.6764 3.61787 13.3676V11.1644ZM6.98412 11.0556C6.92565 11.0547 6.86987 11.0309 6.82884 10.9892C6.78781 10.9475 6.76482 10.8914 6.76482 10.8329C6.76482 10.7744 6.78781 10.7183 6.82884 10.6766C6.86987 10.6349 6.92565 10.6111 6.98412 10.6101C7.04247 10.6101 7.0985 10.6329 7.14015 10.6738C7.1818 10.7147 7.20572 10.7703 7.20677 10.8286C7.20682 10.8881 7.18352 10.9452 7.14188 10.9876C7.10023 11.0301 7.04358 11.0545 6.98412 11.0556ZM6.49819 13.7128H6.58424C6.71138 13.7128 6.80233 13.7128 6.80233 13.5625V12.3318C6.80233 12.1321 6.73431 12.1046 6.56602 12.014V11.9415C6.77949 11.8773 7.03407 11.7917 7.05202 11.7779C7.07677 11.763 7.10509 11.7551 7.13398 11.7549C7.15622 11.7549 7.16558 11.7822 7.16558 11.8189V13.5625C7.16558 13.7128 7.26571 13.7128 7.39303 13.7128H7.46991V13.831C7.31546 13.831 7.15618 13.822 6.99327 13.822C6.82974 13.822 6.6661 13.8262 6.49818 13.831L6.49819 13.7128ZM7.90163 12.3591C7.90163 12.1913 7.85148 12.146 7.63837 12.0595V11.9733C7.84176 11.9109 8.04179 11.838 8.23766 11.7549C8.25142 11.7549 8.26464 11.764 8.26464 11.8003V12.0956C8.4822 11.8985 8.75875 11.7788 9.05135 11.7549C9.4369 11.7549 9.57313 12.0366 9.57313 12.3909V13.5625C9.57313 13.7128 9.67333 13.7128 9.80034 13.7128H9.8823V13.831C9.72274 13.831 9.56404 13.822 9.40067 13.822C9.23705 13.822 9.07342 13.8262 8.90988 13.831V13.7128H8.99183C9.1191 13.7128 9.20955 13.7128 9.20955 13.5625V12.3867C9.20955 12.1274 9.05135 12.0004 8.79212 12.0004C8.6014 12.03 8.42053 12.1048 8.26464 12.2186V13.5625C8.26464 13.7128 8.36504 13.7128 8.49226 13.7128H8.57385V13.8309C8.41497 13.8309 8.25596 13.822 8.09214 13.822C7.92897 13.822 7.76525 13.8262 7.60189 13.8309V13.7128H7.68384C7.81089 13.7128 7.90165 13.7128 7.90165 13.5625L7.90163 12.3591ZM11.0317 12.4319C11.1451 12.4319 11.1583 12.3728 11.1583 12.3181C11.163 12.264 11.1561 12.2095 11.1382 12.1583C11.1203 12.107 11.0917 12.0602 11.0544 12.0207C11.017 11.9813 10.9718 11.9502 10.9216 11.9295C10.8714 11.9088 10.8174 11.8989 10.7631 11.9006C10.4863 11.9006 10.2956 12.1046 10.241 12.4319H11.0317ZM10.2275 12.5775C10.2171 12.665 10.2171 12.7534 10.2275 12.8409C10.2193 13.0318 10.2835 13.2188 10.4073 13.3644C10.531 13.5101 10.7051 13.6036 10.8949 13.6264C11.0124 13.6198 11.1273 13.5894 11.2327 13.5372C11.3381 13.4849 11.4319 13.4118 11.5083 13.3224L11.5717 13.386C11.4833 13.5328 11.3608 13.6561 11.2146 13.7455C11.0683 13.8349 10.9027 13.8876 10.7317 13.8993C10.6089 13.8937 10.4884 13.8634 10.3776 13.8101C10.2667 13.7568 10.1678 13.6816 10.0868 13.5891C10.0057 13.4966 9.94422 13.3887 9.90593 13.2718C9.86765 13.1549 9.85339 13.0315 9.86401 12.909C9.86401 12.0185 10.4635 11.755 10.7811 11.755C10.879 11.7486 10.9771 11.7623 11.0696 11.7952C11.162 11.8281 11.2467 11.8795 11.3186 11.9462C11.3905 12.013 11.448 12.0937 11.4876 12.1834C11.5273 12.2732 11.5482 12.37 11.5491 12.4681C11.5498 12.4955 11.5484 12.5229 11.5448 12.5501L11.5037 12.5775L10.2275 12.5775ZM11.6537 13.7128H11.7765C11.9031 13.7128 11.9941 13.7128 11.9941 13.5625V12.2865C11.9941 12.146 11.8261 12.1183 11.7579 12.0819V12.014C12.0895 11.8732 12.2713 11.7549 12.3128 11.7549C12.3394 11.7549 12.353 11.7685 12.353 11.8142V12.223H12.3626C12.4758 12.0459 12.6669 11.7549 12.9438 11.7549C12.9767 11.7534 13.0095 11.7585 13.0404 11.7699C13.0713 11.7812 13.0996 11.7986 13.1236 11.821C13.1477 11.8434 13.1671 11.8704 13.1806 11.9004C13.1942 11.9304 13.2016 11.9628 13.2025 11.9956C13.2041 12.0249 13.1998 12.0543 13.1899 12.0819C13.18 12.1095 13.1646 12.1349 13.1448 12.1565C13.125 12.1781 13.101 12.1956 13.0744 12.2078C13.0477 12.22 13.0188 12.2268 12.9895 12.2278C12.8482 12.2278 12.8482 12.1183 12.6891 12.1183C12.5977 12.1308 12.5139 12.1759 12.453 12.2452C12.3921 12.3146 12.3583 12.4035 12.3576 12.4958V13.5625C12.3576 13.7128 12.4483 13.7128 12.5756 13.7128H12.8298V13.831C12.58 13.8262 12.3898 13.822 12.1944 13.822C12.008 13.822 11.8172 13.8262 11.6537 13.831L11.6537 13.7128ZM13.4022 13.1994C13.413 13.346 13.4773 13.4835 13.5829 13.5858C13.6885 13.688 13.8281 13.7478 13.975 13.7538C14.021 13.7606 14.0679 13.7573 14.1125 13.7441C14.1571 13.7309 14.1983 13.7082 14.2332 13.6775C14.2682 13.6468 14.2961 13.6089 14.3149 13.5664C14.3338 13.5239 14.3432 13.4778 14.3424 13.4313C14.3424 12.895 13.3525 13.0678 13.3525 12.3366C13.3576 12.2511 13.3803 12.1676 13.4191 12.0912C13.4579 12.0148 13.5121 11.9473 13.5781 11.8927C13.6442 11.8382 13.7207 11.7978 13.8031 11.7741C13.8854 11.7504 13.9717 11.7439 14.0566 11.755C14.2369 11.7594 14.4138 11.8045 14.574 11.887L14.6059 12.35H14.5015C14.4994 12.2877 14.4848 12.2264 14.4586 12.1698C14.4324 12.1132 14.3951 12.0625 14.3489 12.0206C14.3027 11.9787 14.2486 11.9465 14.1898 11.9259C14.1309 11.9052 14.0686 11.8967 14.0063 11.9006C13.9632 11.8957 13.9195 11.8998 13.8779 11.9124C13.8364 11.9251 13.7979 11.9461 13.7647 11.9741C13.7316 12.0022 13.7045 12.0367 13.6852 12.0756C13.6659 12.1145 13.6547 12.1569 13.6523 12.2003C13.6523 12.732 14.7058 12.5682 14.7058 13.2813C14.7058 13.5809 14.4653 13.8993 13.9246 13.8993C13.7301 13.8937 13.54 13.8406 13.3707 13.7447L13.3205 13.2223L13.4022 13.1994ZM18.8073 11.4824H18.694C18.6793 11.3696 18.6425 11.2608 18.5857 11.1623C18.5288 11.0637 18.4531 10.9774 18.3628 10.9082C18.2725 10.839 18.1694 10.7883 18.0595 10.7591C17.9496 10.7298 17.8349 10.7225 17.7222 10.7377C17.5404 10.7384 17.3607 10.7774 17.195 10.8521C17.0293 10.9269 16.8811 11.0357 16.7602 11.1715C16.6394 11.3073 16.5484 11.4671 16.4934 11.6404C16.4384 11.8137 16.4205 11.9966 16.4409 12.1773C16.4143 12.5652 16.5413 12.948 16.7946 13.243C17.0479 13.538 17.407 13.7215 17.7945 13.7538C18.0156 13.7537 18.2294 13.6744 18.3969 13.5301C18.5645 13.3859 18.6748 13.1863 18.7078 12.9677L18.8122 12.9948L18.7078 13.6582C18.3929 13.8062 18.0512 13.8883 17.7034 13.8993C17.4735 13.9165 17.2426 13.8844 17.0261 13.805C16.8096 13.7256 16.6126 13.6009 16.4483 13.4391C16.2841 13.2773 16.1563 13.0823 16.0736 12.8671C15.9909 12.6519 15.9551 12.4214 15.9688 12.1913C15.9873 11.7517 16.1784 11.3371 16.5008 11.0376C16.8231 10.7382 17.2507 10.578 17.6904 10.592C18.0587 10.6115 18.421 10.693 18.7621 10.8332L18.8073 11.4824ZM18.9713 13.7128H19.0573C19.1849 13.7128 19.2756 13.7128 19.2756 13.5625V11.0332C19.2756 10.7377 19.2076 10.7287 19.0347 10.6786V10.6058C19.1962 10.5546 19.3529 10.4892 19.5029 10.4104C19.534 10.39 19.5674 10.3732 19.6023 10.3604C19.6301 10.3604 19.639 10.3879 19.639 10.4244V13.5625C19.639 13.7128 19.7391 13.7128 19.8662 13.7128H19.943V13.831C19.7891 13.831 19.6301 13.822 19.4665 13.822C19.303 13.822 19.1396 13.8262 18.9714 13.831L18.9713 13.7128ZM21.8877 13.5809C21.8877 13.6629 21.9374 13.6672 22.0144 13.6672C22.0693 13.6672 22.137 13.6629 22.1965 13.6629V13.7586C21.9752 13.7895 21.7565 13.8365 21.5421 13.8993L21.5194 13.8854V13.5175C21.3086 13.741 21.0215 13.8773 20.715 13.8993C20.6454 13.901 20.5762 13.8879 20.5121 13.8607C20.448 13.8336 20.3904 13.7931 20.3431 13.742C20.2959 13.6909 20.26 13.6302 20.2381 13.5642C20.2161 13.4981 20.2084 13.4281 20.2156 13.3589V12.1957C20.2156 12.0774 20.1976 11.9639 19.9436 11.9415V11.855C20.1072 11.8505 20.4698 11.8234 20.529 11.8234C20.5795 11.8234 20.5795 11.855 20.5795 11.9551V13.1268C20.5795 13.2633 20.5795 13.6535 20.9745 13.6535C21.1818 13.6204 21.3738 13.5238 21.5238 13.377V12.1547C21.5238 12.064 21.3059 12.014 21.1426 11.9688V11.8871C21.551 11.8594 21.8057 11.8234 21.851 11.8234C21.8877 11.8234 21.8877 11.855 21.8877 11.9051L21.8877 13.5809ZM22.7914 13.3175C22.7976 13.4392 22.849 13.5541 22.9356 13.6399C23.0221 13.7256 23.1376 13.7759 23.2593 13.781C23.7453 13.781 23.9495 13.304 23.9495 12.8995C23.9604 12.6865 23.8923 12.477 23.7583 12.3111C23.6243 12.1452 23.4338 12.0346 23.2233 12.0004C23.0586 12.0182 22.9055 12.0939 22.7914 12.2141L22.7914 13.3175ZM22.7914 12.0819C22.974 11.9002 23.2123 11.785 23.4682 11.7549C23.5871 11.7599 23.7037 11.7888 23.8112 11.8399C23.9186 11.891 24.0147 11.9632 24.0936 12.0523C24.1725 12.1414 24.2326 12.2455 24.2703 12.3583C24.308 12.4712 24.3226 12.5905 24.3131 12.7091C24.3248 13.0104 24.2174 13.3042 24.0141 13.5269C23.8109 13.7496 23.5282 13.8834 23.2271 13.8993C23.0067 13.8989 22.7899 13.8442 22.5958 13.7399L22.4599 13.8445L22.3647 13.7947C22.4064 13.5271 22.4276 13.2568 22.4282 12.9861V11.0332C22.4282 10.7377 22.3598 10.7287 22.1872 10.6786V10.6058C22.3486 10.5547 22.5052 10.4893 22.655 10.4104C22.6863 10.3899 22.72 10.3731 22.7552 10.3604C22.7822 10.3604 22.7914 10.388 22.7914 10.4244L22.7914 12.0819ZM3.19531 16.4721H3.23C3.31885 16.4721 3.41282 16.4599 3.41282 16.3312V15.0364C3.41282 14.9076 3.31885 14.8953 3.23 14.8953H3.19531V14.821C3.29167 14.821 3.43998 14.8309 3.5614 14.8309C3.68488 14.8309 3.83298 14.821 3.9492 14.821V14.8953H3.9143C3.82576 14.8953 3.73166 14.9076 3.73166 15.0364V16.3312C3.73166 16.4599 3.82576 16.4721 3.9143 16.4721H3.9492V16.5463C3.83065 16.5463 3.68201 16.5367 3.55885 16.5367C3.43752 16.5367 3.29166 16.5463 3.19531 16.5463V16.4721Z" fill="#231F20"/>
<path d="M3.93856 16.536L3.93865 16.4834H3.9148C3.8264 16.4834 3.72132 16.468 3.72074 16.3315V15.0367C3.72134 14.9 3.8264 14.8847 3.9148 14.8847H3.93856V14.832C3.82453 14.8321 3.68128 14.842 3.56145 14.842C3.44401 14.842 3.3019 14.8327 3.20619 14.832V14.8847H3.2299C3.31802 14.8847 3.42327 14.9 3.42327 15.0367V16.3315C3.42327 16.468 3.31802 16.4834 3.2299 16.4834H3.20619V16.536C3.3019 16.5352 3.4415 16.5261 3.55872 16.5261C3.67913 16.5261 3.82198 16.5354 3.93856 16.536ZM3.94924 16.5571C3.82965 16.5571 3.68177 16.5473 3.55872 16.5473C3.43775 16.5473 3.29239 16.5571 3.19536 16.5571H3.18457V16.4616H3.2299C3.31961 16.4595 3.40116 16.4522 3.40194 16.3315V15.0367C3.40117 14.9157 3.31961 14.9078 3.2299 14.9063H3.18459V14.8105H3.19538C3.29241 14.8105 3.44059 14.8202 3.56147 14.8202C3.6844 14.8202 3.83241 14.8105 3.94926 14.8105H3.96027V14.9063H3.91479C3.82498 14.9078 3.74293 14.9157 3.74243 15.0367V16.3315C3.74293 16.4522 3.82498 16.4595 3.91479 16.4616H3.96027V16.5571H3.94924ZM5.64724 16.0595L5.65218 16.0545V15.128C5.65648 15.098 5.65402 15.0674 5.64499 15.0384C5.63596 15.0094 5.62057 14.9828 5.59996 14.9605C5.57935 14.9383 5.55402 14.9209 5.52583 14.9096C5.49765 14.8984 5.4673 14.8936 5.43702 14.8955H5.38253V14.8213C5.49893 14.8213 5.61259 14.8312 5.72853 14.8312C5.82985 14.8312 5.93171 14.8213 6.03258 14.8213V14.8955H5.9959C5.89175 14.8955 5.77558 14.9152 5.77558 15.2094V16.3339C5.77408 16.4174 5.77895 16.5009 5.79016 16.5837H5.69624L4.42359 15.1647V16.1833C4.42359 16.3985 4.46535 16.4723 4.65571 16.4723H4.69782V16.5466C4.59153 16.5466 4.48536 16.5369 4.37906 16.5369C4.2681 16.5369 4.15426 16.5466 4.04298 16.5466V16.4723H4.0776C4.24814 16.4723 4.29998 16.3561 4.29998 16.1589V15.1176C4.30004 15.0882 4.29425 15.0591 4.28294 15.0319C4.27163 15.0048 4.25503 14.9802 4.23412 14.9595C4.2132 14.9388 4.18838 14.9225 4.1611 14.9115C4.13382 14.9006 4.10463 14.8951 4.07522 14.8955H4.04294V14.8213C4.13667 14.8213 4.2332 14.8312 4.32688 14.8312C4.40126 14.8312 4.47298 14.8213 4.54708 14.8213L5.64724 16.0595Z" fill="#231F20"/>
<path d="M5.64167 16.0545V16.0536L5.63971 16.052L5.64167 16.0545ZM5.69658 16.5725H5.77835C5.76829 16.4934 5.76394 16.4136 5.76533 16.3339V15.2094C5.76533 14.9127 5.88967 14.8847 5.99616 14.8845H6.02216V14.832C5.92477 14.8327 5.8272 14.8417 5.72889 14.8417C5.6157 14.8417 5.50564 14.8327 5.39396 14.832L5.39369 14.8845H5.43733C5.46896 14.8829 5.50056 14.8882 5.52991 14.9001C5.55925 14.912 5.58563 14.9302 5.60716 14.9534C5.62869 14.9767 5.64486 15.0043 5.65453 15.0345C5.66419 15.0647 5.66712 15.0966 5.66309 15.128L5.65981 16.0622L5.65496 16.0671L5.64648 16.075L4.54727 14.8319C4.47386 14.8319 4.40236 14.8416 4.32695 14.8416C4.2364 14.8416 4.14358 14.8327 4.05396 14.8319L4.05349 14.8845H4.07547C4.10629 14.8842 4.13687 14.89 4.16542 14.9016C4.19398 14.9132 4.21995 14.9304 4.24183 14.9521C4.26371 14.9738 4.28106 14.9996 4.29288 15.0281C4.3047 15.0566 4.31075 15.0871 4.31069 15.1179V16.1588C4.31069 16.3566 4.2556 16.4829 4.07785 16.4836L4.05396 16.4829V16.536C4.16099 16.5351 4.27133 16.526 4.37925 16.526C4.48235 16.526 4.58527 16.5351 4.68723 16.536V16.4836H4.65605C4.46154 16.4829 4.41339 16.3982 4.41324 16.1833V15.137L5.69658 16.5725ZM5.79041 16.5941L5.68866 16.5906L4.43435 15.1926V16.1833C4.43733 16.3982 4.46999 16.4592 4.65605 16.4616H4.709V16.5571H4.69808C4.59113 16.5571 4.48474 16.5472 4.37932 16.5472C4.26863 16.5472 4.15507 16.5571 4.0431 16.5571H4.03223V16.4616H4.07791C4.24122 16.4607 4.2879 16.3557 4.28969 16.1588V15.1179C4.28972 15.0899 4.28419 15.0622 4.2734 15.0363C4.26262 15.0105 4.24681 14.987 4.22688 14.9673C4.20696 14.9476 4.18332 14.9321 4.15733 14.9216C4.13135 14.9111 4.10355 14.9059 4.07553 14.9062H4.03223V14.8105H4.0431C4.13757 14.8105 4.23432 14.8202 4.32701 14.8202C4.40074 14.8202 4.47214 14.8105 4.55551 14.8143L5.64167 16.037V15.128C5.64043 14.9316 5.50929 14.9078 5.43733 14.9062H5.37197V14.8105H5.38289C5.49965 14.8105 5.61337 14.8202 5.72888 14.8202C5.82942 14.8202 5.93074 14.8105 6.03293 14.8105H6.04375V14.9062H5.99616C5.89406 14.9089 5.7894 14.9179 5.78639 15.2094V16.3339C5.785 16.4168 5.7899 16.4996 5.80103 16.5817L5.80327 16.5941L5.79041 16.5941ZM6.40327 14.9449C6.21767 14.9449 6.21056 14.9896 6.1734 15.1697H6.09925C6.10898 15.1006 6.12131 15.0314 6.12898 14.9598C6.13891 14.8902 6.14385 14.8201 6.14378 14.7498H6.20308C6.22295 14.824 6.28479 14.8213 6.35177 14.8213H7.62652C7.69358 14.8213 7.75525 14.8188 7.76036 14.7446L7.81935 14.7548C7.80979 14.8213 7.7997 14.8881 7.79248 14.955C7.78768 15.0216 7.78768 15.0882 7.78768 15.1549L7.71332 15.1824C7.70829 15.0911 7.69609 14.9449 7.5305 14.9449H7.12513V16.2598C7.12513 16.4505 7.21169 16.4723 7.33017 16.4723H7.37729V16.5466C7.28093 16.5466 7.10776 16.537 6.97451 16.537C6.82605 16.537 6.65287 16.5466 6.55644 16.5466V16.4723H6.60358C6.7398 16.4723 6.80862 16.4601 6.80862 16.2649V14.9449H6.40327Z" fill="#231F20"/>
<path d="M7.37747 16.5569C7.28007 16.5569 7.10727 16.5471 6.97451 16.5471C6.82624 16.5471 6.65342 16.5569 6.55644 16.5569H6.54594V16.4614H6.60358C6.7398 16.4582 6.79453 16.4565 6.79768 16.2647V14.9553H6.40327V14.9336H6.81911V16.2647C6.81911 16.4631 6.73912 16.4831 6.60358 16.4834H6.567V16.5356C6.66447 16.5349 6.83102 16.5258 6.97451 16.5258C7.10324 16.5258 7.26829 16.5349 7.36623 16.5356V16.4834H7.33014C7.21067 16.4831 7.11439 16.4538 7.11439 16.2596V14.9336H7.5305C7.69628 14.9343 7.7182 15.0752 7.72341 15.1672L7.77686 15.1474C7.77686 15.0828 7.77713 15.0182 7.78161 14.9533C7.78883 14.8894 7.7978 14.8266 7.80714 14.7632L7.76955 14.757C7.75803 14.8289 7.68842 14.8328 7.62643 14.8319H6.33881C6.28071 14.8319 6.2173 14.8291 6.1951 14.7602H6.1543C6.154 14.8273 6.14916 14.8943 6.13982 14.9607C6.13242 15.0286 6.12119 15.0938 6.11214 15.1593H6.16491C6.19744 14.9869 6.21858 14.9311 6.40327 14.9336V14.9553C6.22027 14.9588 6.2242 14.9895 6.18391 15.1721L6.18213 15.1805H6.08691L6.08829 15.1677C6.09831 15.0987 6.11086 15.0294 6.11807 14.9576C6.12827 14.8888 6.1333 14.8193 6.1331 14.7497V14.7387H6.21154L6.21342 14.7465C6.23013 14.8088 6.27581 14.8092 6.33885 14.8103H7.62643C7.69527 14.8092 7.74542 14.8083 7.74963 14.7436L7.75054 14.7319L7.7617 14.7342L7.83158 14.7453L7.8298 14.7562C7.81998 14.8225 7.81034 14.8891 7.80294 14.9553C7.79832 15.0215 7.79832 15.088 7.79832 15.1548V15.1623L7.7911 15.1651L7.70371 15.1972L7.70307 15.1828C7.69631 15.0898 7.68671 14.9553 7.53053 14.9553H7.1359V16.2596C7.13842 16.446 7.21233 16.4591 7.33015 16.4614H7.38803V16.5569L7.37747 16.5569ZM7.89827 16.4721H7.93306C8.02181 16.4721 8.11596 16.4599 8.11596 16.3312V15.0364C8.11596 14.9076 8.02181 14.8954 7.93306 14.8954H7.89824V14.8211C8.04855 14.8211 8.30623 14.8309 8.51337 14.8309C8.72141 14.8309 8.97803 14.8211 9.14614 14.8211C9.14185 14.9273 9.14418 15.0909 9.1514 15.1994L9.07695 15.219C9.06506 15.0583 9.03546 14.9302 8.77576 14.9302H8.43261V15.5773H8.72625C8.87453 15.5773 8.90688 15.4936 8.92149 15.3599H8.99558C8.9907 15.4565 8.98821 15.5529 8.9881 15.6492C8.9881 15.7433 8.99059 15.8372 8.99558 15.9308L8.92149 15.9456C8.90685 15.7975 8.89943 15.7012 8.72878 15.7012H8.43268V16.2767C8.43268 16.4376 8.57552 16.4376 8.73375 16.4376C9.03041 16.4376 9.16129 16.4177 9.23557 16.1363L9.3045 16.1533C9.27234 16.2846 9.24287 16.4151 9.22077 16.5463C9.06239 16.5463 8.77816 16.5368 8.55615 16.5368C8.33323 16.5368 8.03935 16.5463 7.89829 16.5463L7.89827 16.4721Z" fill="#231F20"/>
<path d="M9.21122 16.5358C9.2328 16.4109 9.26101 16.2861 9.29129 16.1616L9.24264 16.1494C9.16864 16.4258 9.02527 16.4505 8.73352 16.4487C8.57775 16.4487 8.42211 16.4487 8.42125 16.277V15.6906H8.72855C8.90122 15.6889 8.91859 15.7929 8.93092 15.9335L8.98428 15.9226C8.97948 15.8316 8.97707 15.7405 8.97706 15.6494C8.97706 15.5566 8.97947 15.4639 8.98428 15.3707H8.93092C8.91699 15.4998 8.87664 15.5898 8.72603 15.5883H8.42125V14.9192H8.77564C9.0327 14.9172 9.07527 15.0502 9.08651 15.2057L9.1397 15.1912C9.1354 15.1215 9.13254 15.0319 9.13254 14.9494C9.13254 14.9071 9.13363 14.8669 9.13504 14.832C8.96712 14.8327 8.71648 14.8416 8.51327 14.8416C8.31007 14.8416 8.06017 14.8327 7.90894 14.832V14.8845H7.93289C8.02083 14.8847 8.12598 14.8999 8.12658 15.0366V16.3314C8.12598 16.4679 8.02083 16.4829 7.93289 16.4836H7.90896V16.5358C8.05284 16.5353 8.33854 16.526 8.55568 16.526C8.77387 16.526 9.05189 16.5354 9.21122 16.5358ZM9.2204 16.5571C9.06179 16.5571 8.77738 16.5468 8.55568 16.5468C8.333 16.5468 8.03926 16.5571 7.89806 16.5571H7.8877V16.4616H7.93289C8.02231 16.4601 8.10374 16.4522 8.10483 16.3314V15.0367C8.10374 14.9159 8.02235 14.9078 7.93289 14.9063H7.88771V14.8105H7.89807C8.0491 14.8105 8.3062 14.8202 8.51331 14.8202C8.72112 14.8202 8.97771 14.8105 9.14604 14.8105H9.15697L9.1566 14.822C9.15484 14.8644 9.15397 14.9069 9.15401 14.9494C9.15401 15.0348 9.1566 15.1285 9.16149 15.1988L9.16194 15.2076L9.1536 15.2102L9.06671 15.2329L9.06635 15.2201C9.0517 15.0598 9.0302 14.9431 8.77566 14.9407H8.44261L8.44243 15.5667H8.72609C8.86858 15.5652 8.89403 15.4924 8.91088 15.3591L8.91142 15.3492H9.00649L9.00631 15.3605C9.00151 15.457 8.99861 15.5532 8.99861 15.6494C8.99861 15.7429 9.00149 15.8367 9.00631 15.9307L9.00649 15.9396L8.99749 15.9416L8.91142 15.9588L8.91088 15.9472C8.89374 15.7963 8.89265 15.7136 8.72861 15.7119H8.44263V16.277C8.443 16.4272 8.57246 16.4264 8.73357 16.4272C9.03119 16.4255 9.15037 16.4109 9.22483 16.1337L9.22735 16.1237L9.23776 16.1254L9.31697 16.146L9.31472 16.1561C9.28266 16.2869 9.2532 16.4177 9.23082 16.5484L9.22894 16.5572L9.2204 16.5571ZM9.9544 15.6564H10.0752C10.3226 15.6564 10.4559 15.5627 10.4559 15.2709C10.4593 15.2226 10.4523 15.1742 10.4354 15.1288C10.4185 15.0835 10.392 15.0423 10.3577 15.0081C10.3235 14.9739 10.2823 14.9474 10.2369 14.9306C10.1915 14.9137 10.143 14.9068 10.0947 14.9103C10.0478 14.9109 10.0009 14.9143 9.9544 14.9203V15.6564ZM9.63811 15.0831C9.63811 14.9029 9.53912 14.8955 9.46242 14.8955H9.41779V14.8213C9.49691 14.8213 9.65017 14.8312 9.80106 14.8312C9.94906 14.8312 10.0679 14.8213 10.1988 14.8213C10.5098 14.8213 10.7872 14.9053 10.7872 15.2565C10.7839 15.3562 10.7488 15.4522 10.687 15.5305C10.6252 15.6088 10.5399 15.6653 10.4437 15.6916L10.8661 16.324C10.8889 16.3681 10.9233 16.4052 10.9655 16.4313C11.0077 16.4574 11.0563 16.4716 11.1059 16.4723V16.5466C11.0242 16.5466 10.9451 16.537 10.8638 16.537C10.7872 16.537 10.7077 16.5466 10.6315 16.5466C10.4417 16.2919 10.2699 16.0242 10.1173 15.7455H9.9544V16.2748C9.9544 16.4651 10.0432 16.4723 10.1565 16.4723H10.2013V16.5466C10.0601 16.5466 9.91735 16.537 9.77616 16.537C9.65757 16.537 9.54136 16.5466 9.41779 16.5466V16.4723H9.46242C9.55419 16.4723 9.63811 16.4305 9.63811 16.3391V15.0831Z" fill="#231F20"/>
<path d="M10.0754 15.6461C10.3201 15.6436 10.4434 15.5587 10.4458 15.2717C10.4493 15.2247 10.4426 15.1775 10.4262 15.1334C10.4098 15.0892 10.3841 15.0491 10.3508 15.0158C10.3175 14.9825 10.2774 14.9568 10.2333 14.9404C10.1891 14.924 10.1419 14.9173 10.095 14.9208C10.0516 14.921 10.0082 14.9241 9.96519 14.9301V15.6461L10.0754 15.6461ZM9.95456 15.6671H9.9436V14.9103L9.95305 14.9096C10.0001 14.9035 10.0475 14.9003 10.095 14.9C10.1447 14.8966 10.1945 14.9039 10.2411 14.9214C10.2878 14.9389 10.3301 14.9662 10.3653 15.0014C10.4006 15.0366 10.4278 15.0789 10.4453 15.1255C10.4629 15.1721 10.4702 15.222 10.4669 15.2717C10.4662 15.5667 10.3248 15.667 10.0754 15.6671L9.95456 15.6671ZM9.95456 15.7349H10.1234L10.1265 15.7404C10.2784 16.0158 10.4472 16.2815 10.6318 16.536C10.707 16.536 10.7865 16.5261 10.8635 16.5261C10.9423 16.5261 11.0187 16.5347 11.0954 16.5358V16.4816C11.046 16.4793 10.998 16.4641 10.9563 16.4375C10.9145 16.4109 10.8805 16.3739 10.8576 16.33L10.4274 15.6866L10.4396 15.6817C10.534 15.6563 10.6177 15.6012 10.6784 15.5246C10.7391 15.448 10.7736 15.3538 10.7767 15.2561C10.7766 14.9132 10.5098 14.8337 10.1991 14.832C10.069 14.832 9.95019 14.842 9.80136 14.842C9.65618 14.842 9.50949 14.8327 9.42865 14.832V14.8845H9.46272C9.53942 14.8847 9.64861 14.8975 9.64861 15.0831V16.3391C9.64861 16.4384 9.55568 16.4834 9.46272 16.4837H9.42865V16.5358C9.54746 16.5354 9.6603 16.5261 9.77637 16.5261C9.91435 16.5261 10.054 16.5354 10.1907 16.5358V16.4837H10.1568C10.0443 16.4834 9.94366 16.4695 9.94366 16.2744V15.7349H9.95456ZM11.1062 16.5571C11.0233 16.5571 10.9447 16.5473 10.8634 16.5473C10.7881 16.5473 10.7091 16.5571 10.623 16.553C10.4344 16.2996 10.2634 16.0335 10.1112 15.7567H9.96518V16.2744C9.96792 16.4605 10.0425 16.459 10.1567 16.4617H10.2122V16.5572H10.2012C10.06 16.5572 9.91635 16.5473 9.77629 16.5473C9.65826 16.5473 9.54212 16.5572 9.41802 16.5572H9.40723V16.4617H9.46263C9.55148 16.461 9.62664 16.4223 9.627 16.3392V15.0831C9.62513 14.9078 9.53934 14.9088 9.46263 14.9063H9.40723V14.8105H9.41802C9.49801 14.8105 9.65057 14.8202 9.80128 14.8202C9.94883 14.8202 10.0674 14.8105 10.199 14.8105C10.5107 14.8113 10.7974 14.8971 10.7982 15.2561C10.7953 15.3557 10.7611 15.4519 10.7004 15.5309C10.6397 15.61 10.5556 15.6678 10.4601 15.6963L10.8752 16.318C10.8973 16.3608 10.9305 16.3967 10.9715 16.422C11.0124 16.4473 11.0595 16.461 11.1076 16.4616L11.1165 16.463V16.5571L11.1062 16.5571ZM12.7842 16.0595L12.7885 16.0545V15.128C12.7928 15.098 12.7905 15.0674 12.7815 15.0385C12.7725 15.0095 12.7572 14.9829 12.7366 14.9606C12.716 14.9383 12.6908 14.9209 12.6626 14.9097C12.6344 14.8984 12.6041 14.8936 12.5739 14.8955H12.5197V14.8213C12.6359 14.8213 12.7492 14.8312 12.8657 14.8312C12.9673 14.8312 13.0679 14.8213 13.1699 14.8213V14.8955H13.1327C13.0289 14.8955 12.9127 14.9152 12.9127 15.2094V16.3339C12.9112 16.4174 12.9161 16.5009 12.9274 16.5837H12.8338L11.5611 15.1647V16.1833C11.5611 16.3985 11.6028 16.4723 11.7931 16.4723H11.8352V16.5466C11.729 16.5466 11.6226 16.5369 11.5164 16.5369C11.4047 16.5369 11.2913 16.5466 11.1801 16.5466V16.4723H11.2145C11.3851 16.4723 11.4373 16.3561 11.4373 16.1589V15.1176C11.4374 15.0882 11.4316 15.059 11.4203 15.0319C11.4089 15.0047 11.3923 14.9801 11.3714 14.9594C11.3504 14.9387 11.3256 14.9224 11.2983 14.9115C11.271 14.9005 11.2418 14.8951 11.2123 14.8955H11.1801V14.8213C11.2737 14.8213 11.3708 14.8312 11.4646 14.8312C11.538 14.8312 11.6101 14.8213 11.6843 14.8213L12.7842 16.0595Z" fill="#231F20"/>
<path d="M12.8338 16.5723H12.9147C12.9048 16.4931 12.9004 16.4134 12.9017 16.3336V15.2091C12.9019 14.9125 13.0269 14.885 13.1327 14.8842H13.1587V14.8317C13.0614 14.8324 12.9637 14.8414 12.8657 14.8414C12.7521 14.8414 12.642 14.8324 12.5302 14.8317V14.8842H12.5739C12.6055 14.8826 12.6371 14.888 12.6664 14.8999C12.6957 14.9118 12.7221 14.93 12.7436 14.9533C12.7652 14.9765 12.7814 15.0041 12.791 15.0343C12.8007 15.0644 12.8037 15.0963 12.7997 15.1277L12.7962 16.062L12.7917 16.0668L12.7839 16.0749L11.6843 14.8317C11.6107 14.8317 11.5391 14.8414 11.4644 14.8414C11.3727 14.8414 11.2804 14.8324 11.1906 14.8317V14.8842H11.2123C11.2431 14.8839 11.2736 14.8897 11.3022 14.9013C11.3307 14.9128 11.3567 14.93 11.3785 14.9516C11.4004 14.9733 11.4178 14.9991 11.4296 15.0276C11.4414 15.056 11.4475 15.0865 11.4475 15.1173V16.158C11.4475 16.3563 11.3916 16.4826 11.2144 16.4833L11.1905 16.4831V16.5356C11.2973 16.5349 11.4074 16.5257 11.5158 16.5257C11.6195 16.5257 11.7222 16.5349 11.8244 16.5356V16.4833H11.7931C11.5986 16.4831 11.5501 16.3982 11.5496 16.1828V15.1371L12.8338 16.5723ZM12.9273 16.5938L12.8257 16.5904L11.5713 15.1925V16.1829C11.5742 16.3982 11.6067 16.459 11.7931 16.4613H11.8455V16.5568H11.8347C11.7279 16.5568 11.6218 16.5466 11.5159 16.5466C11.4056 16.5466 11.2913 16.5568 11.18 16.5568H11.169V16.4613H11.2144C11.3777 16.4607 11.4244 16.3554 11.426 16.158V15.1173C11.4261 15.0893 11.4206 15.0616 11.4099 15.0358C11.3992 15.0099 11.3834 14.9865 11.3635 14.9668C11.3436 14.9471 11.32 14.9316 11.294 14.9212C11.2681 14.9107 11.2403 14.9056 11.2123 14.906H11.1689V14.8102H11.18C11.2744 14.8102 11.3711 14.8199 11.4644 14.8199C11.537 14.8199 11.6086 14.8102 11.6916 14.8134L12.7781 16.0368V15.1277C12.7774 14.9314 12.6458 14.9071 12.5739 14.906H12.5087V14.8102H12.5195C12.6362 14.8102 12.7502 14.8199 12.8657 14.8199C12.9664 14.8199 13.0676 14.8102 13.1695 14.8102H13.1804V14.906H13.1327C13.0308 14.9084 12.9257 14.9176 12.9232 15.2091V16.3336C12.9215 16.4166 12.9265 16.4995 12.938 16.5817L12.9393 16.5938L12.9273 16.5938ZM13.9281 15.0979H13.9229L13.6933 15.7975H14.155L13.9281 15.0979ZM13.5673 16.1929C13.5426 16.2551 13.5243 16.3196 13.5125 16.3854C13.5125 16.4599 13.6167 16.4721 13.698 16.4721H13.7256V16.5463C13.6263 16.5409 13.5254 16.5367 13.426 16.5367C13.337 16.5367 13.2485 16.5409 13.1593 16.5463V16.4721H13.1743C13.2227 16.4721 13.2697 16.4564 13.3084 16.4274C13.3471 16.3984 13.3754 16.3576 13.389 16.3112L13.7845 15.1772C13.8229 15.0774 13.8537 14.9748 13.8763 14.8704C13.9546 14.8425 14.0298 14.8069 14.101 14.7641C14.1073 14.7613 14.1139 14.7596 14.1208 14.7591C14.1241 14.7584 14.1276 14.7588 14.1307 14.7602C14.1338 14.7616 14.1364 14.7639 14.1382 14.7668C14.1455 14.7864 14.1527 14.8087 14.1604 14.8284L14.6154 16.1213C14.645 16.2075 14.6744 16.2989 14.706 16.3735C14.7188 16.4056 14.7417 16.4327 14.7713 16.4505C14.8009 16.4683 14.8356 16.4759 14.8699 16.4721H14.8847V16.5463C14.7734 16.5409 14.6619 16.5367 14.5438 16.5367C14.4226 16.5367 14.2986 16.5409 14.1727 16.5463V16.4721H14.1999C14.2563 16.4721 14.3534 16.4623 14.3534 16.4004C14.3437 16.3393 14.327 16.2796 14.3035 16.2224L14.2072 15.9358H13.6462L13.5673 16.1929Z" fill="#231F20"/>
<path d="M13.7076 15.7868H14.1404L13.9253 15.1245L13.7076 15.7868ZM13.6781 15.8084L13.9146 15.0873H13.9279L13.9354 15.0872L14.1702 15.8084L13.6781 15.8084ZM14.1833 16.5352C14.3055 16.5309 14.4256 16.526 14.5436 16.526C14.6583 16.526 14.766 16.5309 14.8735 16.5352V16.4834H14.8698C14.8333 16.4872 14.7966 16.4789 14.7653 16.4598C14.734 16.4407 14.7098 16.4119 14.6964 16.3778C14.6642 16.3031 14.6341 16.2114 14.605 16.1248L14.1499 14.8321C14.1424 14.8124 14.1354 14.7903 14.129 14.7728L14.1251 14.7703H14.1205C14.1156 14.7707 14.1108 14.7717 14.1062 14.7734C14.0375 14.8159 13.9635 14.8491 13.8861 14.8722C13.8637 14.9774 13.833 15.0806 13.7943 15.1809L13.399 16.3151C13.3845 16.3636 13.3549 16.4061 13.3144 16.4364C13.2739 16.4667 13.2247 16.4832 13.1741 16.4834H13.17V16.5352C13.2548 16.5309 13.3403 16.526 13.4261 16.526C13.5217 16.526 13.6192 16.5309 13.7137 16.5352V16.4834H13.6978C13.6171 16.4822 13.5047 16.4735 13.5018 16.3859C13.5132 16.3189 13.5315 16.2533 13.5565 16.1901L13.6379 15.9256H14.2143L14.3132 16.2192C14.3375 16.2773 14.3544 16.3383 14.3635 16.4006C14.3598 16.4764 14.2558 16.4819 14.1998 16.4833H14.1833L14.1833 16.5352ZM14.8838 16.5571C14.7728 16.5524 14.6613 16.5469 14.5436 16.5469C14.4225 16.5469 14.2993 16.5524 14.1731 16.5571L14.1617 16.5577V16.4612H14.1997C14.257 16.4612 14.3419 16.4483 14.3421 16.4007C14.3326 16.3408 14.3162 16.2823 14.2933 16.2262L14.1992 15.9466H13.654L13.5771 16.1964C13.5529 16.2576 13.5347 16.3211 13.5227 16.3859C13.5235 16.4463 13.6158 16.4612 13.6978 16.4612H13.7358V16.5577L13.7246 16.557C13.6258 16.5523 13.5249 16.5468 13.4261 16.5468C13.3378 16.5468 13.2484 16.5523 13.1599 16.557L13.1484 16.5577V16.4611H13.1741C13.2201 16.4613 13.265 16.4464 13.3019 16.4188C13.3387 16.3912 13.3656 16.3523 13.3784 16.3081L13.7742 15.1735C13.8128 15.0711 13.8456 14.9665 13.8723 14.8603C13.9505 14.8324 14.0257 14.7969 14.0969 14.7544C14.1043 14.751 14.1124 14.749 14.1205 14.7487C14.126 14.7484 14.1314 14.7495 14.1362 14.752C14.141 14.7545 14.1451 14.7583 14.1479 14.7629C14.1549 14.7831 14.1627 14.8053 14.1702 14.8253L14.6253 16.1179C14.6545 16.2045 14.684 16.2957 14.7163 16.369C14.7279 16.3993 14.7493 16.4249 14.7771 16.4416C14.805 16.4583 14.8376 16.4652 14.8698 16.4611H14.8947V16.5577L14.8838 16.5571ZM14.9932 14.9449C14.8079 14.9449 14.8004 14.9896 14.7632 15.1697H14.6888C14.6986 15.1006 14.7112 15.0314 14.7189 14.9598C14.7286 14.8902 14.7334 14.8201 14.7333 14.7498H14.7931C14.8124 14.824 14.8744 14.8213 14.9411 14.8213H16.2166C16.283 14.8213 16.3448 14.8188 16.3497 14.7446L16.4088 14.7548C16.3996 14.8213 16.3898 14.8881 16.382 14.955C16.3766 15.0216 16.3766 15.0882 16.3766 15.1549L16.3027 15.1824C16.2983 15.0911 16.2859 14.9449 16.12 14.9449H15.7147V16.2598C15.7147 16.4505 15.8014 16.4723 15.9198 16.4723H15.967V16.5466C15.8706 16.5466 15.6978 16.537 15.564 16.537C15.416 16.537 15.2425 16.5466 15.1462 16.5466V16.4723H15.1933C15.3295 16.4723 15.3984 16.4601 15.3984 16.2649V14.9449H14.9932Z" fill="#231F20"/>
<path d="M15.9664 16.5569C15.8692 16.5569 15.696 16.5471 15.5632 16.5471C15.4156 16.5471 15.2426 16.5569 15.1457 16.5569H15.1347V16.4614H15.1926C15.329 16.4582 15.3836 16.4565 15.3869 16.2647L15.3867 14.9553H14.9927V14.9337H15.4085V16.2647C15.4085 16.4632 15.3284 16.4827 15.1926 16.4832H15.1562V16.5358C15.2539 16.535 15.4199 16.5258 15.5632 16.5258C15.6923 16.5258 15.8577 16.535 15.9554 16.5358V16.4832H15.919C15.8 16.4827 15.7037 16.4541 15.7035 16.2596V14.9337H16.1194C16.2854 14.9343 16.307 15.0752 16.3118 15.1672L16.3655 15.1474C16.3655 15.0829 16.3659 15.0183 16.3709 14.9536C16.3776 14.8899 16.3869 14.8267 16.396 14.7635L16.3586 14.7571C16.3473 14.829 16.2775 14.833 16.216 14.8319H14.9278C14.8696 14.8325 14.8065 14.8291 14.784 14.76H14.7437C14.7433 14.8272 14.7382 14.8942 14.7285 14.9607C14.7217 15.0289 14.7099 15.0943 14.7004 15.1593H14.7535C14.7861 14.9869 14.8075 14.9309 14.9927 14.9337V14.9553C14.8094 14.9584 14.8134 14.9895 14.773 15.1721L14.7713 15.1805H14.6758L14.6773 15.1683C14.6877 15.0988 14.6998 15.0294 14.707 14.9582C14.717 14.8891 14.7219 14.8194 14.7217 14.7497V14.7387H14.8002L14.8023 14.7465C14.8196 14.8088 14.8646 14.8092 14.9278 14.8103H16.216C16.2844 14.8092 16.3343 14.8083 16.3387 14.7438L16.339 14.7319L16.3505 14.7342L16.4207 14.7453L16.4189 14.7562C16.4088 14.8225 16.3994 14.8891 16.392 14.9553C16.3869 15.0215 16.3869 15.0881 16.3869 15.1548V15.1623L16.3796 15.1651L16.2922 15.1972L16.2918 15.1828C16.2854 15.0898 16.2756 14.9554 16.1194 14.9554H15.7247V16.2596C15.7273 16.446 15.8013 16.4591 15.919 16.4615H15.9767V16.5569L15.9664 16.5569ZM16.4997 16.4721H16.5343C16.6234 16.4721 16.7169 16.46 16.7169 16.3312V15.0364C16.7169 14.9076 16.6234 14.8954 16.5343 14.8954H16.4997V14.8211C16.5961 14.8211 16.7441 14.831 16.8651 14.831C16.989 14.831 17.1374 14.8211 17.2538 14.8211V14.8954H17.2191C17.1297 14.8954 17.0358 14.9076 17.0358 15.0364V16.3312C17.0358 16.46 17.1297 16.4721 17.2191 16.4721H17.2538V16.5464C17.135 16.5464 16.9865 16.5368 16.8631 16.5368C16.7418 16.5368 16.5961 16.5464 16.4997 16.5464V16.4721Z" fill="#231F20"/>
<path d="M17.2427 16.5355V16.4831H17.2193C17.1306 16.4831 17.0257 16.4676 17.0257 16.3311V15.0363C17.0257 14.8996 17.1306 14.8844 17.2193 14.8842H17.2427V14.8317C17.1287 14.8324 16.9856 14.8413 16.8653 14.8413C16.748 14.8413 16.6065 14.8324 16.5106 14.8317V14.8842H16.5346C16.6224 14.8844 16.7277 14.8996 16.728 15.0363V16.3311C16.7277 16.4676 16.6224 16.483 16.5346 16.483H16.5106V16.5355C16.6058 16.5344 16.7456 16.5257 16.8633 16.5257C16.9832 16.5257 17.1262 16.5348 17.2427 16.5355ZM17.254 16.5568C17.1345 16.5568 16.9866 16.5465 16.8633 16.5465C16.7423 16.5465 16.5964 16.5568 16.4999 16.5568H16.4893V16.4613H16.5346C16.6237 16.4598 16.7058 16.452 16.7063 16.3311V15.0363C16.7058 14.9155 16.6237 14.9075 16.5346 14.9059H16.4893V14.8102H16.4999C16.5964 14.8102 16.7451 14.8199 16.8653 14.8199C16.9886 14.8199 17.1368 14.8102 17.254 14.8102H17.2642V14.9059H17.2193C17.1288 14.9075 17.0476 14.9155 17.0467 15.0363V16.3311C17.0476 16.452 17.1288 16.4598 17.2193 16.4613H17.2642V16.5568L17.254 16.5568ZM18.2768 16.4745C18.7564 16.4745 18.84 16.0516 18.84 15.6912C18.84 15.33 18.6453 14.8927 18.2348 14.8927C17.8023 14.8927 17.6737 15.2783 17.6737 15.6092C17.6737 16.0516 17.8765 16.4745 18.2768 16.4745ZM18.2394 14.784C18.3586 14.7729 18.4788 14.7867 18.5925 14.8244C18.7061 14.8621 18.8107 14.923 18.8996 15.0031C18.9886 15.0832 19.06 15.1809 19.1093 15.29C19.1587 15.3991 19.1849 15.5172 19.1863 15.6369C19.1919 15.7616 19.1716 15.8862 19.1268 16.0027C19.082 16.1192 19.0136 16.2252 18.9259 16.3141C18.8382 16.4029 18.7331 16.4727 18.6172 16.519C18.5012 16.5654 18.377 16.5873 18.2522 16.5834C18.1321 16.5904 18.0118 16.5726 17.8989 16.531C17.786 16.4894 17.6829 16.4249 17.5962 16.3416C17.5094 16.2583 17.4407 16.1579 17.3945 16.0468C17.3484 15.9357 17.3256 15.8163 17.3278 15.696C17.326 15.5757 17.3484 15.4564 17.3936 15.345C17.4388 15.2336 17.5059 15.1323 17.5909 15.0473C17.6759 14.9623 17.7771 14.8952 17.8885 14.8499C17.9999 14.8047 18.1192 14.7823 18.2394 14.784Z" fill="#231F20"/>
<path d="M17.6626 15.6096C17.6634 15.277 17.7932 14.8821 18.2344 14.8821C18.6542 14.883 18.8499 15.3284 18.8507 15.6916C18.8499 16.052 18.7651 16.485 18.2767 16.485V16.4641C18.7466 16.4637 18.8282 16.052 18.829 15.6916C18.829 15.3335 18.6362 14.9045 18.2344 14.9038C17.8104 14.9043 17.6852 15.2804 17.6841 15.6096C17.6842 16.0499 17.8853 16.4634 18.2767 16.4641V16.485C17.8664 16.4847 17.6634 16.0545 17.6626 15.6096ZM17.3165 15.6963C17.315 15.5747 17.3378 15.4541 17.3836 15.3414C17.4294 15.2288 17.4973 15.1265 17.5833 15.0405C17.6693 14.9545 17.7716 14.8866 17.8842 14.8407C17.9968 14.7949 18.1175 14.772 18.2391 14.7735V14.7951C18.1202 14.7934 18.0022 14.8155 17.8921 14.8602C17.7819 14.9048 17.6819 14.9712 17.5978 15.0552C17.5137 15.1392 17.4474 15.2392 17.4027 15.3494C17.3579 15.4595 17.3357 15.5775 17.3374 15.6963C17.3354 15.8152 17.358 15.9333 17.4037 16.0431C17.4495 16.1528 17.5175 16.252 17.6033 16.3342C17.6892 16.4165 17.7912 16.4801 17.9028 16.5212C18.0144 16.5622 18.1333 16.5797 18.2521 16.5726C18.3754 16.5765 18.4983 16.5549 18.6129 16.5091C18.7276 16.4633 18.8315 16.3944 18.9182 16.3065C19.005 16.2187 19.0726 16.1138 19.1169 15.9986C19.1612 15.8834 19.1812 15.7602 19.1756 15.6369C19.1741 15.5186 19.1481 15.4019 19.0993 15.2941C19.0504 15.1864 18.9798 15.0899 18.8918 15.0108C18.8038 14.9317 18.7004 14.8717 18.588 14.8346C18.4757 14.7975 18.3569 14.784 18.2391 14.7951V14.7735C18.3596 14.7627 18.4811 14.7769 18.5959 14.8152C18.7107 14.8535 18.8164 14.9151 18.9063 14.9962C18.9962 15.0773 19.0684 15.176 19.1184 15.2863C19.1683 15.3965 19.195 15.5159 19.1966 15.6369C19.202 15.763 19.1814 15.8888 19.136 16.0065C19.0906 16.1243 19.0214 16.2314 18.9328 16.3212C18.8441 16.411 18.7379 16.4816 18.6208 16.5286C18.5037 16.5755 18.3782 16.5978 18.252 16.5941C18.1306 16.6009 18.009 16.5827 17.8949 16.5405C17.7808 16.4983 17.6767 16.433 17.5889 16.3488C17.5011 16.2646 17.4317 16.1632 17.3848 16.0509C17.3379 15.9386 17.3147 15.8179 17.3165 15.6963ZM20.8516 16.0595L20.8567 16.0545V15.128C20.861 15.098 20.8585 15.0673 20.8495 15.0384C20.8404 15.0094 20.825 14.9828 20.8044 14.9605C20.7837 14.9382 20.7584 14.9208 20.7302 14.9096C20.702 14.8984 20.6716 14.8935 20.6413 14.8955H20.5875V14.8213C20.7033 14.8213 20.8173 14.8312 20.933 14.8312C21.0347 14.8312 21.1359 14.8213 21.2374 14.8213V14.8955H21.2003C21.0966 14.8955 20.9801 14.9152 20.9801 15.2094V16.3339C20.9786 16.4174 20.9836 16.5009 20.9951 16.5837H20.9011L19.6281 15.1647V16.1833C19.6281 16.3985 19.6702 16.4723 19.8601 16.4723H19.9025V16.5466C19.7961 16.5466 19.6901 16.5369 19.5837 16.5369C19.4725 16.5369 19.3587 16.5466 19.2474 16.5466V16.4723H19.2821C19.453 16.4723 19.5045 16.3561 19.5045 16.1589V15.1176C19.5046 15.0882 19.4988 15.059 19.4875 15.0318C19.4762 15.0046 19.4596 14.9799 19.4386 14.9593C19.4176 14.9386 19.3928 14.9223 19.3654 14.9113C19.3381 14.9004 19.3088 14.895 19.2794 14.8955H19.2474V14.8213C19.3414 14.8213 19.4377 14.8312 19.5318 14.8312C19.6058 14.8312 19.677 14.8213 19.7515 14.8213L20.8516 16.0595Z" fill="#231F20"/>
<path d="M20.9014 16.5722H20.9824C20.9727 16.4931 20.9684 16.4134 20.9695 16.3336V15.2091C20.9695 14.9119 21.0943 14.885 21.2004 14.8842H21.2272V14.8317C21.129 14.8324 21.0318 14.8414 20.933 14.8414C20.8204 14.8414 20.71 14.8324 20.5981 14.8317V14.8842H20.6415C20.6731 14.8827 20.7047 14.8881 20.734 14.9C20.7633 14.912 20.7896 14.9302 20.8111 14.9534C20.8326 14.9766 20.8487 15.0042 20.8584 15.0343C20.868 15.0645 20.871 15.0963 20.867 15.1277L20.8645 16.062L20.8597 16.0668L20.8519 16.0749L19.7519 14.8317C19.6788 14.8317 19.6068 14.8414 19.532 14.8414C19.4409 14.8414 19.3481 14.8324 19.2581 14.8317V14.8842H19.2798C19.3106 14.8839 19.3412 14.8897 19.3698 14.9012C19.3983 14.9128 19.4243 14.9299 19.4462 14.9516C19.4681 14.9733 19.4855 14.9991 19.4974 15.0275C19.5093 15.0559 19.5154 15.0865 19.5154 15.1173V16.1585C19.5154 16.3563 19.4602 16.4826 19.2824 16.4833L19.2581 16.4831V16.5356C19.3654 16.5349 19.4754 16.5257 19.584 16.5257C19.6872 16.5257 19.7896 16.5349 19.892 16.5356V16.4833H19.8601C19.6662 16.4831 19.6176 16.3982 19.6176 16.183V15.1368L20.9014 16.5722ZM20.9955 16.5938L20.8932 16.5904L19.6389 15.1925V16.1831C19.6418 16.3982 19.6745 16.4587 19.8601 16.4609H19.9134V16.5568H19.9029C19.7959 16.5568 19.6897 16.547 19.584 16.547C19.4733 16.547 19.3595 16.5568 19.2474 16.5568H19.2373V16.4609H19.2824C19.4453 16.4604 19.4922 16.3555 19.4941 16.1586V15.1173C19.4942 15.0893 19.4887 15.0615 19.4779 15.0356C19.4672 15.0098 19.4513 14.9863 19.4314 14.9666C19.4114 14.9469 19.3877 14.9314 19.3617 14.921C19.3357 14.9106 19.3078 14.9055 19.2798 14.906H19.2373V14.8102H19.2475C19.3422 14.8102 19.4386 14.8199 19.532 14.8199C19.6053 14.8199 19.6763 14.8102 19.7601 14.8141L20.8462 16.0368V15.1277C20.8453 14.9314 20.7137 14.9075 20.6416 14.906H20.5765V14.8102H20.5878C20.7039 14.8102 20.8179 14.8199 20.933 14.8199C21.0342 14.8199 21.135 14.8102 21.2378 14.8102H21.2481V14.906H21.2005C21.0986 14.9086 20.9934 14.918 20.9913 15.2091V16.3336C20.9897 16.4165 20.9944 16.4995 21.0053 16.5817L21.0074 16.5938L20.9955 16.5938ZM21.9961 15.0979H21.9911L21.7607 15.7975H22.2236L21.9961 15.0979ZM21.6346 16.1929C21.6105 16.2552 21.5923 16.3197 21.5805 16.3854C21.5805 16.4599 21.6847 16.4721 21.7657 16.4721H21.7933V16.5463C21.6944 16.5409 21.593 16.5367 21.4939 16.5367C21.4049 16.5367 21.3161 16.5409 21.2275 16.5463V16.4721H21.2416C21.29 16.4722 21.3372 16.4566 21.3759 16.4276C21.4147 16.3986 21.443 16.3577 21.4565 16.3112L21.8527 15.1771C21.891 15.0774 21.9214 14.9749 21.9436 14.8704C22.0221 14.8424 22.0977 14.8068 22.1693 14.7641C22.1754 14.7612 22.182 14.7595 22.1888 14.7591C22.1921 14.7584 22.1955 14.7589 22.1985 14.7602C22.2015 14.7616 22.2041 14.7639 22.2057 14.7668C22.2132 14.7864 22.2206 14.8087 22.2281 14.8284L22.6828 16.1213C22.7123 16.2075 22.7421 16.2989 22.7744 16.3735C22.7869 16.4056 22.8097 16.4326 22.8392 16.4505C22.8686 16.4683 22.9032 16.4759 22.9374 16.4721H22.9526V16.5463C22.8412 16.5409 22.7298 16.5367 22.6112 16.5367C22.4903 16.5367 22.3665 16.5409 22.2403 16.5463V16.4721H22.2678C22.3243 16.4721 22.4212 16.4623 22.4212 16.4004C22.4116 16.3393 22.3949 16.2796 22.3714 16.2224L22.2751 15.9358H21.7141L21.6346 16.1929Z" fill="#231F20"/>
<path d="M21.7759 15.7865H22.2082L21.9932 15.1246L21.7759 15.7865ZM21.746 15.808L21.9833 15.0869H21.9961H22.0036L22.2373 15.808H21.746ZM22.2509 16.535C22.3733 16.5306 22.4935 16.5257 22.6114 16.5257C22.7262 16.5257 22.8337 16.5306 22.9416 16.5349L22.9414 16.4831H22.9372C22.9008 16.4865 22.8643 16.4781 22.8331 16.4591C22.802 16.44 22.7778 16.4114 22.7643 16.3775C22.7318 16.3028 22.7024 16.2111 22.6728 16.1248L22.218 14.8318C22.2107 14.8122 22.2037 14.7926 22.197 14.7729L22.1937 14.7699H22.1888C22.184 14.7703 22.1793 14.7714 22.1748 14.7733C22.1059 14.8154 22.0319 14.8486 21.9546 14.8719C21.9318 14.977 21.901 15.0802 21.8626 15.1806L21.4667 16.3148C21.4523 16.3633 21.4227 16.406 21.3821 16.4363C21.3416 16.4666 21.2923 16.483 21.2417 16.4831H21.238V16.5349C21.3231 16.5306 21.408 16.5257 21.494 16.5257C21.5898 16.5257 21.6875 16.5306 21.7824 16.5349V16.4831H21.7657C21.6853 16.482 21.5727 16.4735 21.5696 16.3854C21.5815 16.3185 21.6 16.253 21.6248 16.1898L21.7062 15.9254H22.2822L22.3815 16.2189C22.4055 16.2771 22.4222 16.3381 22.4313 16.4004C22.4277 16.4761 22.3238 16.4817 22.2677 16.4831H22.251L22.2509 16.535ZM22.9516 16.5568C22.8402 16.5524 22.7292 16.5469 22.6114 16.5469C22.4908 16.5469 22.3669 16.5524 22.241 16.5568L22.23 16.5574V16.4613H22.2677C22.3251 16.4613 22.4102 16.448 22.4103 16.4004C22.4008 16.3405 22.3842 16.2819 22.3609 16.2259L22.2671 15.9463H21.7215L21.6451 16.1961C21.6213 16.2573 21.6032 16.3207 21.5913 16.3854C21.5913 16.4459 21.684 16.4613 21.7657 16.4613H21.8035V16.5574L21.7924 16.5568C21.6937 16.5524 21.5925 16.5469 21.494 16.5469C21.4055 16.5469 21.3168 16.5524 21.2276 16.5568L21.2168 16.5574V16.4613H21.2416C21.2879 16.4613 21.3328 16.4463 21.3698 16.4186C21.4068 16.391 21.4339 16.3521 21.447 16.3078L21.8424 15.1732C21.8805 15.0708 21.9133 14.9664 21.9404 14.8604C22.0185 14.832 22.0938 14.7964 22.1653 14.754C22.1727 14.7507 22.1807 14.7488 22.1888 14.7486C22.1942 14.7482 22.1996 14.7493 22.2044 14.7518C22.2092 14.7544 22.2131 14.7583 22.2157 14.7631C22.2232 14.7825 22.2305 14.805 22.2385 14.8249L22.693 16.1176C22.7227 16.2041 22.7522 16.2954 22.7843 16.3691C22.796 16.3993 22.8173 16.4246 22.845 16.4413C22.8727 16.458 22.9051 16.465 22.9372 16.4612H22.9627V16.5574L22.9516 16.5568ZM23.5752 16.3038C23.5752 16.4032 23.644 16.4324 23.7232 16.4427C23.832 16.4509 23.9413 16.4492 24.0498 16.4375C24.0962 16.4321 24.141 16.4174 24.1817 16.3945C24.2224 16.3715 24.2581 16.3407 24.2868 16.3038C24.3224 16.2494 24.3483 16.1893 24.3634 16.1261H24.4349C24.4077 16.267 24.3732 16.4056 24.3435 16.5463C24.1265 16.5463 23.9083 16.5367 23.6912 16.5367C23.4735 16.5367 23.2561 16.5463 23.0388 16.5463V16.472H23.0729C23.1621 16.472 23.2588 16.4598 23.2588 16.3065V15.0363C23.2588 14.9075 23.1621 14.8952 23.0729 14.8952H23.0388V14.821C23.1695 14.821 23.2982 14.8309 23.4291 14.8309C23.5553 14.8309 23.6787 14.821 23.805 14.821V14.8952H23.7429C23.649 14.8952 23.5752 14.8978 23.5752 15.0287L23.5752 16.3038Z" fill="#231F20"/>
<path d="M24.335 16.5356C24.3636 16.4013 24.3959 16.2701 24.4226 16.1368H24.3716C24.3564 16.1987 24.3307 16.2575 24.2957 16.3107C24.2355 16.3873 24.1474 16.4368 24.0507 16.4485C23.9861 16.4549 23.9218 16.4583 23.8613 16.4583C23.8134 16.4583 23.7672 16.4562 23.7222 16.453C23.6418 16.4442 23.5641 16.4097 23.5641 16.3039V15.0289C23.5641 14.8915 23.6511 14.8843 23.7433 14.8843H23.7942V14.8318C23.6725 14.8325 23.5523 14.8417 23.4293 14.8417C23.3016 14.8417 23.1763 14.8325 23.0498 14.8318V14.8843H23.0733C23.1615 14.8843 23.2694 14.8997 23.2694 15.036V16.3067C23.2694 16.4666 23.162 16.4832 23.0733 16.4832H23.0498V16.5356C23.2633 16.5351 23.477 16.5258 23.6916 16.5258C23.9065 16.5258 24.121 16.5352 24.335 16.5356ZM24.344 16.5569C24.126 16.5569 23.9084 16.547 23.6916 16.547C23.4741 16.547 23.2566 16.5569 23.0386 16.5569H23.0283V16.4614H23.0734C23.1627 16.4592 23.2476 16.453 23.2486 16.3066V15.036C23.2476 14.9157 23.1631 14.9076 23.0734 14.9061H23.0283V14.8103H23.0386C23.1703 14.8103 23.2989 14.82 23.4293 14.82C23.5551 14.82 23.6782 14.8103 23.8055 14.8103H23.8154V14.9061H23.7433C23.6475 14.9085 23.5879 14.9041 23.5858 15.0289V16.3039C23.5865 16.3963 23.647 16.4211 23.7243 16.4321C23.7699 16.4352 23.8156 16.4368 23.8613 16.4367C23.9238 16.4368 23.9862 16.4336 24.0484 16.4271C24.1391 16.4162 24.2218 16.3698 24.2785 16.2981C24.3132 16.2446 24.3385 16.1856 24.3532 16.1236L24.3552 16.1155H24.4484L24.4462 16.1285C24.4183 16.2698 24.3843 16.4077 24.3543 16.5486L24.3523 16.5569L24.344 16.5569ZM24.3636 15.0119H24.3942C24.4279 15.0119 24.4434 14.9866 24.4434 14.9454C24.4434 14.9041 24.4195 14.8894 24.3926 14.8894H24.3635L24.3636 15.0119ZM24.2759 15.1491V15.1365C24.3077 15.1319 24.3136 15.1327 24.3136 15.1133V14.9204C24.3136 14.8933 24.311 14.8839 24.2769 14.8854V14.8721H24.4101C24.4559 14.8721 24.4981 14.894 24.4981 14.9413C24.498 14.9594 24.4918 14.9769 24.4807 14.9911C24.4695 15.0053 24.454 15.0154 24.4365 15.0198L24.4794 15.0795C24.4952 15.1027 24.5145 15.1234 24.5367 15.1409V15.1491H24.486C24.4616 15.1491 24.4401 15.098 24.3924 15.0295H24.3635V15.1157C24.3635 15.1327 24.3696 15.1319 24.4016 15.1365V15.1491H24.2759ZM24.4052 15.223C24.4473 15.2241 24.4888 15.2126 24.5243 15.19C24.5599 15.1674 24.5878 15.1347 24.6047 15.0961C24.6215 15.0575 24.6265 15.0147 24.6189 14.9733C24.6113 14.9319 24.5915 14.8936 24.5621 14.8635C24.5327 14.8334 24.4949 14.8127 24.4537 14.8041C24.4125 14.7956 24.3696 14.7995 24.3306 14.8155C24.2916 14.8314 24.2583 14.8586 24.2349 14.8936C24.2114 14.9286 24.1989 14.9697 24.199 15.0119C24.1986 15.0671 24.2201 15.1203 24.2587 15.1599C24.2973 15.1994 24.35 15.2221 24.4052 15.223ZM24.4052 14.751C24.4567 14.751 24.507 14.7663 24.5497 14.7948C24.5925 14.8234 24.6259 14.864 24.6456 14.9115C24.6653 14.959 24.6705 15.0113 24.6605 15.0617C24.6505 15.1122 24.6258 15.1586 24.5894 15.195C24.5531 15.2314 24.5068 15.2562 24.4564 15.2663C24.4059 15.2765 24.3537 15.2714 24.3061 15.2518C24.2585 15.2322 24.2179 15.1989 24.1892 15.1562C24.1605 15.1135 24.1452 15.0633 24.145 15.0119C24.1444 14.9775 24.1506 14.9433 24.1635 14.9114C24.1763 14.8795 24.1954 14.8505 24.2197 14.8262C24.244 14.8018 24.2729 14.7826 24.3048 14.7697C24.3367 14.7568 24.3709 14.7504 24.4052 14.751Z" fill="#231F20"/>
<path d="M8.96777 6.0954C8.96781 5.26751 9.21333 4.45823 9.6733 3.76988C10.1333 3.08154 10.787 2.54505 11.5519 2.22825C12.3168 1.91146 13.1584 1.82859 13.9704 1.99012C14.7824 2.15166 15.5282 2.55034 16.1136 3.13575C16.699 3.72117 17.0976 4.46702 17.2591 5.279C17.4206 6.09098 17.3377 6.93262 17.0209 7.69748C16.7041 8.46234 16.1675 9.11608 15.4792 9.57602C14.7908 10.036 13.9815 10.2814 13.1536 10.2814C12.6039 10.2814 12.0596 10.1732 11.5517 9.96278C11.0439 9.7524 10.5824 9.44406 10.1937 9.05535C9.80505 8.66664 9.49672 8.20517 9.28637 7.6973C9.07602 7.18943 8.96776 6.6451 8.96777 6.0954Z" fill="white"/>
<path d="M13.1595 10.356C12.0103 10.3637 10.9049 9.9158 10.0852 9.11029C9.26558 8.30478 8.7985 7.20732 8.78625 6.05818C8.77317 5.48029 8.87735 4.90575 9.09249 4.36924C9.30764 3.83274 9.62928 3.34541 10.038 2.93667C10.4467 2.52793 10.9341 2.20628 11.4706 1.99112C12.0071 1.77597 12.5816 1.67178 13.1595 1.68485H14.2837C14.8694 1.67087 15.4521 1.77327 15.998 1.9861C16.5439 2.19894 17.0422 2.51798 17.4639 2.92476C17.8856 3.33153 18.2224 3.81794 18.4548 4.35581C18.6871 4.89368 18.8105 5.47232 18.8176 6.0582C18.7619 7.22098 18.2591 8.31727 17.4142 9.11813C16.5694 9.91898 15.4478 10.3625 14.2837 10.356H13.1595ZM13.1692 2.04343C12.3842 2.04348 11.6169 2.27628 10.9642 2.7124C10.3116 3.14853 9.80291 3.76838 9.50253 4.4936C9.20215 5.21881 9.12355 6.01681 9.27669 6.78669C9.42982 7.55657 9.8078 8.26375 10.3628 8.81881C10.9179 9.37388 11.625 9.7519 12.3949 9.90508C13.1648 10.0583 13.9628 9.97971 14.688 9.67937C15.4132 9.37903 16.0331 8.87038 16.4693 8.21775C16.9054 7.56512 17.1383 6.79781 17.1384 6.01285C17.1383 4.96015 16.7201 3.95057 15.9758 3.20618C15.2314 2.46178 14.2219 2.04354 13.1692 2.04343ZM12.2682 8.36004V3.66513C11.7931 3.84705 11.3844 4.16884 11.0961 4.58798C10.8077 5.00711 10.6534 5.50387 10.6534 6.01259C10.6534 6.52132 10.8077 7.01808 11.0961 7.43721C11.3844 7.85635 11.7931 8.17812 12.2682 8.36004ZM15.6852 6.01285C15.6846 5.50402 15.5299 5.0073 15.2415 4.58813C14.953 4.16895 14.5444 3.84699 14.0693 3.66466V8.36096C14.5444 8.17863 14.953 7.85668 15.2415 7.43752C15.5299 7.01836 15.6846 6.52167 15.6852 6.01285Z" fill="#0069AA"/>
</g>
<defs>
<clipPath id="clip0_179527_10327">
<rect width="27.75" height="18.5" fill="white" transform="translate(0.125)"/>
</clipPath>
</defs>
</svg>
