<svg width="28" height="19" viewBox="0 0 28 19" fill="none" xmlns="http://www.w3.org/2000/svg">
<g clip-path="url(#clip0_179527_10348)">
<path d="M25.4714 0.448242H2.52787C1.3982 0.448242 0.482422 1.36402 0.482422 2.4937V16.3636C0.482422 17.4933 1.3982 18.409 2.52787 18.409H25.4714C26.6011 18.409 27.5169 17.4933 27.5169 16.3636V2.4937C27.5169 1.36402 26.6011 0.448242 25.4714 0.448242Z" fill="white"/>
<path d="M27.104 10.6406C27.104 10.6406 19.9193 15.7104 6.76074 17.9794H27.104V10.6406Z" fill="#F58220"/>
<path d="M3.08352 6.4143H1.98633V10.2463H3.07774C3.57264 10.2739 4.06006 10.1162 4.445 9.80392C4.75839 9.54486 4.98129 9.19287 5.08151 8.79882C5.18172 8.40476 5.15406 7.98905 5.00251 7.61175C4.85097 7.23445 4.58339 6.9151 4.23844 6.69986C3.89349 6.48461 3.48904 6.38461 3.08352 6.4143ZM3.95671 9.29298C3.66849 9.52398 3.30145 9.63328 2.93381 9.5976H2.73318V7.06359H2.93378C3.11631 7.04494 3.30072 7.06273 3.47631 7.11593C3.65191 7.16912 3.81519 7.25666 3.95668 7.37346C4.08809 7.49505 4.19276 7.64265 4.26403 7.80687C4.3353 7.9711 4.37162 8.14836 4.37068 8.32739C4.37176 8.50815 4.33555 8.68719 4.26433 8.85332C4.1931 9.01946 4.08838 9.16913 3.95671 9.29298Z" fill="#231F20"/>
<path d="M6.23184 6.41406H5.48438V10.2461H6.23184V6.41406Z" fill="#231F20"/>
<path d="M8.05887 7.88464C7.61033 7.71866 7.47861 7.60921 7.47861 7.40218C7.47861 7.1608 7.71327 6.97741 8.03545 6.97741C8.15289 6.97992 8.26822 7.00918 8.37266 7.06296C8.4771 7.11673 8.56791 7.19361 8.63819 7.28774L9.02927 6.77564C8.71944 6.49955 8.31823 6.34818 7.90324 6.3508C7.75197 6.3414 7.60037 6.36264 7.45751 6.41325C7.31465 6.46386 7.18349 6.5428 7.07188 6.64533C6.96027 6.74787 6.87052 6.87189 6.80801 7.00995C6.7455 7.14801 6.71151 7.29728 6.70809 7.4488C6.70809 7.97672 6.94889 8.24701 7.65088 8.49967C7.8296 8.55602 8.0026 8.62909 8.1676 8.71791C8.23624 8.75877 8.29302 8.81685 8.33232 8.88639C8.37162 8.95593 8.39209 9.03453 8.39169 9.11441C8.39107 9.18862 8.37532 9.26193 8.34542 9.32985C8.31552 9.39778 8.27209 9.45889 8.21778 9.50948C8.16347 9.56006 8.09942 9.59904 8.02955 9.62405C7.95967 9.64905 7.88543 9.65956 7.81136 9.65492C7.64055 9.65766 7.47259 9.61085 7.32781 9.52015C7.18304 9.42946 7.06764 9.29875 6.99558 9.14386L6.5127 9.60883C6.64842 9.83794 6.84309 10.0265 7.07643 10.1548C7.30977 10.2831 7.57324 10.3465 7.83941 10.3384C8.01069 10.3504 8.1826 10.3266 8.34416 10.2684C8.50573 10.2103 8.6534 10.1191 8.77775 10.0007C8.90211 9.88232 9.00043 9.7393 9.06642 9.58079C9.13242 9.42227 9.16465 9.25174 9.16106 9.08008C9.16106 8.47119 8.90914 8.19563 8.05887 7.88464Z" fill="#231F20"/>
<path d="M9.39752 8.3331C9.39542 8.59823 9.44648 8.8611 9.54767 9.10617C9.64887 9.35125 9.79815 9.57355 9.9867 9.75996C10.1752 9.94638 10.3992 10.0931 10.6455 10.1915C10.8917 10.2899 11.1551 10.3379 11.4202 10.3328C11.7458 10.3332 12.0669 10.2567 12.3573 10.1095V9.22958C12.2459 9.36025 12.1076 9.46538 11.9519 9.53781C11.7962 9.61023 11.6267 9.64825 11.455 9.64928C11.2816 9.65437 11.1091 9.62338 10.9483 9.55829C10.7875 9.4932 10.642 9.39542 10.521 9.27116C10.4 9.14689 10.3061 8.99885 10.2454 8.83641C10.1846 8.67396 10.1582 8.50066 10.1679 8.32749C10.1622 8.15848 10.1903 7.99004 10.2505 7.832C10.3106 7.67395 10.4016 7.52946 10.5182 7.40696C10.6347 7.28446 10.7745 7.18639 10.9294 7.11848C11.0843 7.05056 11.2511 7.01417 11.4202 7.01141C11.5981 7.01261 11.7736 7.05169 11.9352 7.12604C12.0968 7.20039 12.2407 7.3083 12.3573 7.4426V6.56316C12.0755 6.40854 11.7593 6.32758 11.4378 6.32779C11.1719 6.32448 10.908 6.37383 10.6612 6.47299C10.4145 6.57216 10.1898 6.71919 10.0001 6.9056C9.81046 7.09201 9.65956 7.31412 9.55614 7.55912C9.45272 7.80412 9.39881 8.06717 9.39752 8.3331Z" fill="#231F20"/>
<path d="M18.2837 8.98836L17.2616 6.41455H16.4453L18.0718 10.345H18.4741L20.1291 6.41455H19.319L18.2837 8.98836Z" fill="#231F20"/>
<path d="M20.4678 10.2464H22.5876V9.59809H21.2147V8.56363H22.5367V7.91459H21.2147V7.06359H22.5876V6.41455H20.4678V10.2464Z" fill="#231F20"/>
<path d="M25.5465 7.54538C25.5465 6.82798 25.0523 6.41406 24.1904 6.41406H23.082V10.2461H23.8286V8.70672H23.9261L24.9607 10.2461H25.8799L24.6736 8.63173C24.9298 8.5954 25.1627 8.4629 25.3248 8.26113C25.4869 8.05937 25.5662 7.80347 25.5465 7.54538ZM24.0469 8.17824H23.8286V7.01766H24.0588C24.5243 7.01766 24.7773 7.21268 24.7773 7.58564C24.7773 7.97087 24.5244 8.17824 24.0469 8.17824Z" fill="#231F20"/>
<path d="M16.6787 8.34358C16.6787 8.74678 16.5591 9.14092 16.3352 9.47618C16.1112 9.81143 15.7928 10.0727 15.4203 10.2271C15.0478 10.3814 14.6379 10.4218 14.2425 10.3431C13.847 10.2645 13.4838 10.0703 13.1987 9.78524C12.9136 9.50015 12.7194 9.13692 12.6407 8.74147C12.5621 8.34603 12.6024 7.93614 12.7567 7.56364C12.911 7.19113 13.1723 6.87275 13.5075 6.64874C13.8428 6.42474 14.2369 6.30518 14.6401 6.30518C15.1807 6.30519 15.6992 6.51995 16.0815 6.90222C16.4638 7.28449 16.6786 7.80295 16.6787 8.34358Z" fill="url(#paint0_linear_179527_10348)"/>
<path style="mix-blend-mode:multiply" opacity="0.65" d="M16.6787 8.34358C16.6787 8.74678 16.5591 9.14092 16.3352 9.47618C16.1112 9.81143 15.7928 10.0727 15.4203 10.2271C15.0478 10.3814 14.6379 10.4218 14.2425 10.3431C13.847 10.2645 13.4838 10.0703 13.1987 9.78524C12.9136 9.50015 12.7194 9.13692 12.6407 8.74147C12.5621 8.34603 12.6024 7.93614 12.7567 7.56364C12.911 7.19113 13.1723 6.87275 13.5075 6.64874C13.8428 6.42474 14.2369 6.30518 14.6401 6.30518C15.1807 6.30519 15.6992 6.51995 16.0815 6.90222C16.4638 7.28449 16.6786 7.80295 16.6787 8.34358Z" fill="url(#paint1_linear_179527_10348)"/>
<path d="M26.0237 6.55848C26.0237 6.49132 25.9775 6.45459 25.8962 6.45459H25.7881V6.79138H25.8685V6.66076L25.9627 6.79138H26.0609L25.9502 6.65253C25.9716 6.64808 25.9907 6.63619 26.0042 6.61897C26.0176 6.60175 26.0246 6.58032 26.0237 6.55848ZM25.8821 6.60445H25.8685V6.5164H25.8829C25.9227 6.5164 25.9434 6.53072 25.9434 6.55971C25.9433 6.58949 25.9224 6.60445 25.8821 6.60445Z" fill="#231F20"/>
<path d="M25.9118 6.32864C25.8535 6.32788 25.7964 6.34447 25.7476 6.37628C25.6988 6.40809 25.6605 6.4537 25.6377 6.5073C25.6149 6.5609 25.6085 6.62008 25.6195 6.6773C25.6304 6.73452 25.658 6.7872 25.699 6.82865C25.7399 6.8701 25.7922 6.89845 25.8493 6.91008C25.9064 6.92171 25.9656 6.9161 26.0195 6.89397C26.0734 6.87184 26.1195 6.83418 26.1519 6.78579C26.1843 6.7374 26.2017 6.68045 26.2016 6.6222C26.2021 6.54485 26.1718 6.47048 26.1174 6.41543C26.0631 6.36039 25.9891 6.32917 25.9118 6.32864ZM25.9106 6.86343C25.8626 6.86516 25.8151 6.85248 25.7743 6.82704C25.7335 6.8016 25.7013 6.76455 25.6817 6.72065C25.6622 6.67675 25.6562 6.628 25.6645 6.58067C25.6728 6.53333 25.6951 6.48956 25.7285 6.45498C25.7619 6.4204 25.8048 6.39659 25.8519 6.3866C25.8989 6.37662 25.9478 6.38091 25.9924 6.39893C26.0369 6.41695 26.0751 6.44788 26.1019 6.48774C26.1288 6.5276 26.1431 6.57458 26.1431 6.62265C26.144 6.68536 26.1201 6.74589 26.0765 6.79101C26.0329 6.83612 25.9733 6.86216 25.9106 6.86343Z" fill="#231F20"/>
<path d="M25.5625 1.02083C25.9714 1.02083 26.3635 1.18326 26.6526 1.47238C26.9417 1.7615 27.1042 2.15362 27.1042 2.5625V16.4375C27.1042 16.8464 26.9417 17.2385 26.6526 17.5276C26.3635 17.8167 25.9714 17.9792 25.5625 17.9792H2.4375C2.02862 17.9792 1.6365 17.8167 1.34738 17.5276C1.05826 17.2385 0.895833 16.8464 0.895833 16.4375V2.5625C0.895833 2.15362 1.05826 1.7615 1.34738 1.47238C1.6365 1.18326 2.02862 1.02083 2.4375 1.02083H25.5625ZM25.5625 0.25H2.4375C1.82475 0.25183 1.23762 0.496055 0.804337 0.929337C0.371055 1.36262 0.12683 1.94975 0.125 2.5625L0.125 16.4375C0.12683 17.0502 0.371055 17.6374 0.804337 18.0707C1.23762 18.5039 1.82475 18.7482 2.4375 18.75H25.5625C26.1752 18.7482 26.7624 18.5039 27.1957 18.0707C27.6289 17.6374 27.8732 17.0502 27.875 16.4375V2.5625C27.8732 1.94975 27.6289 1.36262 27.1957 0.929337C26.7624 0.496055 26.1752 0.25183 25.5625 0.25Z" fill="#DDDDDD"/>
</g>
<defs>
<linearGradient id="paint0_linear_179527_10348" x1="15.6836" y1="9.9774" x2="14.2721" y2="7.76747" gradientUnits="userSpaceOnUse">
<stop stop-color="#F9A020"/>
<stop offset="0.25025" stop-color="#F89B20"/>
<stop offset="0.5331" stop-color="#F78E20"/>
<stop offset="0.61963" stop-color="#F68820"/>
<stop offset="0.73488" stop-color="#F58120"/>
<stop offset="1" stop-color="#F47521"/>
</linearGradient>
<linearGradient id="paint1_linear_179527_10348" x1="13.1986" y1="6.90216" x2="16.0816" y2="9.78511" gradientUnits="userSpaceOnUse">
<stop stop-color="#623100"/>
<stop offset="0.0949" stop-color="#9D4D14"/>
<stop offset="0.18879" stop-color="#D16525"/>
<stop offset="0.23454" stop-color="#E56F2C"/>
<stop offset="0.33161" stop-color="#DA642D"/>
<stop offset="0.45826" stop-color="#D05B2E"/>
<stop offset="0.6779" stop-color="#DAAC33"/>
<stop offset="0.99998" stop-color="#EEBE37"/>
</linearGradient>
<clipPath id="clip0_179527_10348">
<rect width="27.75" height="18.5" fill="white" transform="translate(0.125 0.25)"/>
</clipPath>
</defs>
</svg>
