<svg width="28" height="19" viewBox="0 0 28 19" fill="none" xmlns="http://www.w3.org/2000/svg">
<path d="M25.5622 1.021H2.43717C1.58574 1.021 0.895508 1.71122 0.895508 2.56266V16.4377C0.895508 17.2891 1.58574 17.9793 2.43717 17.9793H25.5622C26.4136 17.9793 27.1038 17.2891 27.1038 16.4377V2.56266C27.1038 1.71122 26.4136 1.021 25.5622 1.021Z" fill="white"/>
<path d="M25.5625 1.02083C25.9712 1.0213 26.3631 1.18387 26.6521 1.47289C26.9411 1.76191 27.1037 2.15377 27.1042 2.5625V16.4375C27.1037 16.8462 26.9411 17.2381 26.6521 17.5271C26.3631 17.8161 25.9712 17.9787 25.5625 17.9792H2.4375C2.02877 17.9787 1.63691 17.8161 1.34789 17.5271C1.05887 17.2381 0.896296 16.8462 0.895833 16.4375V2.5625C0.896296 2.15377 1.05887 1.76191 1.34789 1.47289C1.63691 1.18387 2.02877 1.0213 2.4375 1.02083H25.5625ZM25.5625 0.25H2.4375C1.82474 0.251794 1.23759 0.496007 0.804297 0.929297C0.371007 1.36259 0.126794 1.94974 0.125 2.5625V16.4375C0.126794 17.0503 0.371007 17.6374 0.804297 18.0707C1.23759 18.504 1.82474 18.7482 2.4375 18.75H25.5625C26.1753 18.7482 26.7624 18.504 27.1957 18.0707C27.629 17.6374 27.8732 17.0503 27.875 16.4375V2.5625C27.8732 1.94974 27.629 1.36258 27.1957 0.929295C26.7624 0.496005 26.1753 0.251792 25.5625 0.25Z" fill="#DDDDDD"/>
<path d="M24.0192 10.0449H3.97754V11.5866H24.0192V10.0449Z" fill="#DDDDDD"/>
<path d="M24.0192 13.5991H3.97754V15.1408H24.0192V13.5991Z" fill="#DDDDDD"/>
<path d="M3.97754 7.6137V3.6123H4.5071V7.6137H3.97754Z" fill="#FD6000"/>
<path d="M5.37793 7.61365V4.71496H5.82011V5.12711C5.91867 4.97375 6.05573 4.84893 6.21762 4.76511C6.37951 4.68129 6.56056 4.64141 6.74268 4.64945C6.90802 4.6476 7.07198 4.67965 7.22445 4.74362C7.35477 4.79406 7.4686 4.87955 7.55336 4.99064C7.62916 5.09961 7.68123 5.22329 7.70621 5.35366C7.72885 5.51182 7.73799 5.67162 7.7335 5.83132V7.61365H7.24217V5.85043C7.24899 5.69858 7.2296 5.54669 7.18486 5.40142C7.146 5.30148 7.07428 5.21773 6.98151 5.16396C6.87779 5.10313 6.75917 5.07241 6.63896 5.07525C6.43979 5.07153 6.24646 5.14263 6.09716 5.27451C6.00896 5.37792 5.94316 5.49851 5.90393 5.62865C5.86471 5.75878 5.85289 5.89564 5.86924 6.03058V7.61365H5.37793Z" fill="#FD6000"/>
<path d="M9.29217 7.61356L8.18945 4.71484H8.70805L9.33038 6.4508C9.3977 6.63822 9.45957 6.83293 9.51599 7.03491C9.55967 6.88206 9.62063 6.69828 9.69886 6.48356L10.343 4.71485H10.848L9.75072 7.61356H9.29217Z" fill="#FD6000"/>
<path d="M11.0987 6.16461C11.0808 5.94509 11.1116 5.72432 11.189 5.51811C11.2664 5.3119 11.3884 5.12535 11.5463 4.97182C11.8 4.75549 12.1247 4.64076 12.458 4.64974C12.6392 4.64332 12.8197 4.67484 12.988 4.7423C13.1562 4.80975 13.3086 4.91164 13.4351 5.04143C13.5667 5.18782 13.668 5.35884 13.7331 5.54459C13.7982 5.73035 13.8259 5.92717 13.8145 6.12368C13.8289 6.42625 13.7714 6.72791 13.6467 7.00397C13.5373 7.21516 13.3671 7.38869 13.1581 7.5021C12.9439 7.62049 12.7027 7.6816 12.458 7.67952C12.2758 7.68693 12.0941 7.65602 11.9246 7.58879C11.7551 7.52155 11.6016 7.41949 11.474 7.2892C11.2057 6.97838 11.0708 6.57427 11.0987 6.16461ZM11.6037 6.16461C11.581 6.46281 11.6673 6.75911 11.8466 6.99846C11.9226 7.08559 12.0164 7.15539 12.1217 7.20319C12.227 7.25098 12.3413 7.27564 12.4569 7.27551C12.5726 7.27538 12.6868 7.25046 12.792 7.20244C12.8972 7.15441 12.9908 7.08439 13.0667 6.9971C13.2471 6.75255 13.3333 6.45119 13.3096 6.14823C13.3306 5.85589 13.2437 5.56601 13.0653 5.33346C12.9894 5.24656 12.8958 5.17689 12.7907 5.12912C12.6857 5.08134 12.5717 5.05656 12.4563 5.05643C12.3409 5.0563 12.2268 5.08083 12.1217 5.12837C12.0165 5.17591 11.9227 5.24537 11.8466 5.33209C11.6672 5.57086 11.5808 5.8668 11.6037 6.16461Z" fill="#FD6000"/>
<path d="M14.3936 4.17733V3.6123H14.8849V4.17733H14.3936ZM14.3936 7.61375V4.71501H14.8849V7.6137L14.3936 7.61375Z" fill="#FD6000"/>
<path d="M17.5237 6.552L18.0068 6.61478C17.9708 6.91591 17.8268 7.19376 17.6015 7.39678C17.3787 7.58706 17.0932 7.68775 16.8004 7.67928C16.6224 7.68671 16.4448 7.65582 16.2798 7.58872C16.1148 7.52162 15.966 7.41986 15.8437 7.29033C15.5845 6.97888 15.455 6.57965 15.482 6.17533C15.476 5.89361 15.529 5.61375 15.6376 5.35376C15.7318 5.1296 15.8986 4.9436 16.1112 4.8256C16.3228 4.70831 16.5612 4.64767 16.8031 4.64955C17.0804 4.63764 17.3533 4.72202 17.5756 4.88837C17.7827 5.05958 17.9197 5.30099 17.9604 5.56665L17.4828 5.64035C17.4519 5.4716 17.3671 5.31741 17.2412 5.20091C17.1243 5.10214 16.9752 5.0497 16.8222 5.05352C16.7082 5.04992 16.5948 5.07196 16.4904 5.11802C16.386 5.16408 16.2932 5.23298 16.219 5.31964C16.044 5.56381 15.9617 5.86235 15.987 6.16169C15.9614 6.462 16.0405 6.76191 16.2108 7.01056C16.2815 7.09634 16.3709 7.1648 16.4721 7.21069C16.5734 7.25658 16.6838 7.27869 16.7949 7.27532C16.9728 7.28087 17.146 7.21728 17.278 7.0979C17.4212 6.95022 17.5081 6.75708 17.5237 6.552Z" fill="#FD6000"/>
<path d="M20.412 6.68045L20.9197 6.74322C20.8542 7.01732 20.6973 7.2609 20.4747 7.43378C20.1954 7.6164 19.8633 7.70114 19.5307 7.67471C19.198 7.64828 18.8834 7.51218 18.6364 7.28775C18.3729 6.98463 18.2391 6.59004 18.2639 6.18913C18.2381 5.77621 18.373 5.36932 18.6405 5.05369C18.765 4.92038 18.9167 4.81533 19.0853 4.74564C19.2538 4.67596 19.4354 4.64325 19.6177 4.64973C19.7951 4.64382 19.9718 4.67609 20.1356 4.74437C20.2995 4.81266 20.4468 4.91535 20.5675 5.04551C20.8294 5.3553 20.9614 5.7543 20.936 6.15914C20.936 6.18826 20.9351 6.23194 20.9333 6.29018H18.7715C18.7705 6.55861 18.8665 6.81839 19.0418 7.0217C19.1192 7.10428 19.2132 7.16957 19.3176 7.21331C19.4221 7.25706 19.5345 7.27826 19.6477 7.27554C19.8129 7.28022 19.975 7.23033 20.109 7.13361C20.2524 7.01571 20.3578 6.85805 20.412 6.68045ZM18.7988 5.88618H20.4174C20.4121 5.6888 20.3474 5.49761 20.2318 5.33755C20.1593 5.24636 20.0665 5.17326 19.9609 5.124C19.8553 5.07474 19.7397 5.05067 19.6231 5.05369C19.5179 5.05112 19.4132 5.06987 19.3154 5.1088C19.2176 5.14773 19.1287 5.20605 19.0541 5.28023C18.8953 5.44261 18.8041 5.65917 18.7988 5.88618Z" fill="#FD6000"/>
</svg>
