<svg width="28" height="19" viewBox="0 0 28 19" fill="none" xmlns="http://www.w3.org/2000/svg">
<g clip-path="url(#clip0_179527_10248)">
<path d="M25.5622 0.770996H2.43717C1.58574 0.770996 0.895508 1.46122 0.895508 2.31266V16.1877C0.895508 17.0391 1.58574 17.7293 2.43717 17.7293H25.5622C26.4136 17.7293 27.1038 17.0391 27.1038 16.1877V2.31266C27.1038 1.46122 26.4136 0.770996 25.5622 0.770996Z" fill="white"/>
<path d="M9.58459 14.6018V13.8872C9.58874 13.8271 9.58005 13.7668 9.55907 13.7103C9.5381 13.6539 9.50534 13.6025 9.46296 13.5597C9.42058 13.5169 9.36957 13.4836 9.31332 13.4621C9.25707 13.4405 9.19687 13.4312 9.13673 13.4347C9.05801 13.4296 8.97937 13.4458 8.909 13.4814C8.83863 13.5171 8.77912 13.571 8.73667 13.6375C8.69796 13.573 8.6426 13.5201 8.57641 13.4845C8.51021 13.4488 8.43563 13.4316 8.3605 13.4347C8.29498 13.4313 8.2297 13.4451 8.17115 13.4747C8.1126 13.5043 8.06281 13.5487 8.02673 13.6035V13.4632H7.7793V14.6018H8.02905V13.9705C8.02362 13.9315 8.0269 13.8918 8.03867 13.8543C8.05043 13.8167 8.07038 13.7822 8.09707 13.7533C8.12376 13.7244 8.15653 13.7018 8.19302 13.6871C8.22951 13.6724 8.26881 13.666 8.30809 13.6683C8.47228 13.6683 8.55553 13.7754 8.55553 13.9681V14.6018H8.80528V13.9705C8.80027 13.9316 8.80386 13.892 8.81577 13.8547C8.82769 13.8173 8.84766 13.783 8.87426 13.7542C8.90086 13.7254 8.93346 13.7028 8.96975 13.688C9.00604 13.6731 9.04515 13.6664 9.08432 13.6683C9.25313 13.6683 9.33407 13.7754 9.33407 13.9681V14.6018H9.58459ZM13.2846 13.4632H12.8799V13.1179H12.6302V13.4632H12.3989V13.6899H12.6302V14.2094C12.6302 14.4738 12.7327 14.6311 13.0256 14.6311C13.1346 14.6312 13.2414 14.6008 13.3339 14.5432L13.2622 14.3312C13.1958 14.3707 13.1205 14.3927 13.0433 14.3952C12.9192 14.3952 12.8791 14.3181 12.8791 14.2048V13.6906H13.2838L13.2846 13.4632ZM15.3974 13.4347C15.3371 13.433 15.2774 13.4475 15.2247 13.4768C15.1719 13.5061 15.128 13.5491 15.0976 13.6012V13.4632H14.8525V14.6018H15.0999V13.9635C15.0999 13.7754 15.1808 13.6706 15.3427 13.6706C15.3955 13.6699 15.4478 13.6796 15.4969 13.6991L15.574 13.4679C15.5173 13.4476 15.4576 13.4372 15.3974 13.437V13.4347ZM12.2031 13.5534C12.0635 13.4704 11.903 13.4292 11.7406 13.4347C11.4523 13.4347 11.2665 13.5727 11.2665 13.7993C11.2665 13.9851 11.4045 14.0992 11.6597 14.1354L11.7761 14.1524C11.9117 14.1716 11.9765 14.2071 11.9765 14.2711C11.9765 14.359 11.8863 14.4091 11.7167 14.4091C11.5807 14.4128 11.4474 14.3707 11.3382 14.2896L11.2218 14.4823C11.3662 14.5832 11.5391 14.6351 11.7152 14.6303C12.0435 14.6303 12.2347 14.4761 12.2347 14.2587C12.2347 14.0583 12.0844 13.9504 11.837 13.918L11.7206 13.9011C11.6134 13.8864 11.5279 13.8656 11.5279 13.7893C11.5279 13.713 11.6088 13.656 11.7445 13.656C11.8691 13.658 11.9911 13.6916 12.099 13.7539L12.2031 13.5534ZM18.8392 13.4347C18.7789 13.433 18.7192 13.4475 18.6664 13.4768C18.6137 13.5061 18.5698 13.5491 18.5394 13.6012V13.4632H18.2942V14.6018H18.5417V13.9635C18.5417 13.7754 18.6226 13.6706 18.7845 13.6706C18.8372 13.6699 18.8896 13.6796 18.9387 13.6991L19.0157 13.4679C18.9591 13.4476 18.8994 13.4372 18.8392 13.437V13.4347ZM15.6472 14.0329C15.6438 14.1131 15.6573 14.1932 15.6868 14.2679C15.7162 14.3426 15.761 14.4103 15.8182 14.4667C15.8755 14.523 15.9439 14.5668 16.019 14.5951C16.0942 14.6234 16.1744 14.6357 16.2546 14.6311C16.4032 14.6384 16.5492 14.5901 16.6639 14.4954L16.5452 14.295C16.4596 14.3603 16.3553 14.3962 16.2477 14.3975C16.1551 14.3915 16.0682 14.3504 16.0048 14.2827C15.9413 14.215 15.906 14.1257 15.906 14.0329C15.906 13.9401 15.9413 13.8508 16.0048 13.7831C16.0682 13.7153 16.1551 13.6743 16.2477 13.6683C16.3553 13.6696 16.4596 13.7055 16.5452 13.7708L16.6639 13.5704C16.5492 13.4757 16.4032 13.4273 16.2546 13.4347C16.1744 13.4301 16.0942 13.4424 16.019 13.4707C15.9439 13.499 15.8755 13.5428 15.8182 13.5991C15.761 13.6555 15.7162 13.7232 15.6868 13.7979C15.6573 13.8726 15.6438 13.9527 15.6472 14.0329ZM17.9674 14.0329V13.464H17.72V13.602C17.6776 13.5475 17.6229 13.5039 17.5602 13.475C17.4976 13.446 17.4289 13.4325 17.36 13.4355C17.2079 13.445 17.0651 13.5121 16.9607 13.6231C16.8563 13.7342 16.7982 13.8809 16.7982 14.0333C16.7982 14.1857 16.8563 14.3324 16.9607 14.4434C17.0651 14.5545 17.2079 14.6216 17.36 14.6311C17.4289 14.6341 17.4976 14.6206 17.5602 14.5916C17.6229 14.5626 17.6776 14.5191 17.72 14.4646V14.6025H17.9674V14.0329ZM17.0424 14.0329C17.0463 13.9658 17.0698 13.9013 17.1099 13.8473C17.15 13.7934 17.2051 13.7523 17.2682 13.7293C17.3314 13.7062 17.3999 13.7021 17.4654 13.7175C17.5308 13.733 17.5903 13.7672 17.6365 13.816C17.6828 13.8648 17.7137 13.9261 17.7256 13.9923C17.7374 14.0585 17.7296 14.1267 17.7032 14.1885C17.6767 14.2503 17.6328 14.303 17.5767 14.3402C17.5207 14.3773 17.455 14.3972 17.3877 14.3975C17.3406 14.3981 17.2938 14.389 17.2503 14.3706C17.2068 14.3523 17.1676 14.3251 17.1352 14.2909C17.1027 14.2566 17.0777 14.216 17.0618 14.1716C17.0458 14.1272 17.0392 14.08 17.0424 14.0329ZM14.0531 13.4347C13.8977 13.4425 13.7515 13.5104 13.6454 13.6242C13.5393 13.738 13.4817 13.8886 13.4848 14.0441C13.488 14.1996 13.5515 14.3478 13.6621 14.4573C13.7726 14.5667 13.9215 14.6288 14.077 14.6303C14.247 14.6362 14.4132 14.5794 14.5441 14.4707L14.4223 14.2873C14.3282 14.3628 14.2115 14.4046 14.0909 14.406C14.0089 14.4129 13.9275 14.3877 13.8639 14.3356C13.8003 14.2835 13.7595 14.2086 13.7502 14.1269H14.5981C14.5981 14.0961 14.6027 14.0653 14.6027 14.0313C14.61 13.9559 14.6015 13.8798 14.5777 13.8078C14.554 13.7359 14.5155 13.6696 14.4647 13.6134C14.414 13.5571 14.352 13.512 14.2829 13.481C14.2138 13.45 14.1389 13.4337 14.0631 13.4332L14.0531 13.4347ZM14.0485 13.656C14.1233 13.6545 14.1956 13.6827 14.2496 13.7344C14.3036 13.7861 14.335 13.8571 14.3368 13.9319H13.7463C13.7507 13.8556 13.7848 13.784 13.8412 13.7324C13.8977 13.6809 13.9721 13.6534 14.0485 13.656ZM20.2629 14.0321V13.0054H20.0155V13.6005C19.9732 13.5459 19.9184 13.5024 19.8558 13.4734C19.7931 13.4444 19.7245 13.4309 19.6555 13.434C19.5034 13.4434 19.3606 13.5105 19.2563 13.6216C19.1519 13.7327 19.0938 13.8793 19.0938 14.0317C19.0938 14.1841 19.1519 14.3308 19.2563 14.4419C19.3606 14.553 19.5034 14.6201 19.6555 14.6295C19.7245 14.6326 19.7931 14.619 19.8558 14.5901C19.9184 14.5611 19.9732 14.5175 20.0155 14.463V14.601H20.2629V14.0321ZM19.3379 14.0321C19.3419 13.965 19.3653 13.9005 19.4054 13.8465C19.4456 13.7926 19.5006 13.7516 19.5638 13.7285C19.6269 13.7054 19.6954 13.7014 19.7609 13.7168C19.8263 13.7322 19.8858 13.7664 19.9321 13.8152C19.9783 13.864 20.0093 13.9253 20.0211 13.9915C20.0329 14.0577 20.0252 14.1259 19.9987 14.1877C19.9723 14.2495 19.9283 14.3023 19.8722 14.3394C19.8162 14.3765 19.7505 14.3965 19.6833 14.3967C19.6361 14.3974 19.5893 14.3882 19.5458 14.3699C19.5024 14.3515 19.4632 14.3244 19.4307 14.2901C19.3983 14.2558 19.3733 14.2152 19.3573 14.1708C19.3413 14.1264 19.3347 14.0792 19.3379 14.0321ZM10.9729 14.0321V13.4632H10.7254V13.6012C10.6831 13.5467 10.6283 13.5032 10.5657 13.4742C10.5031 13.4452 10.4344 13.4317 10.3654 13.4347C10.2133 13.4442 10.0705 13.5113 9.96617 13.6224C9.86181 13.7334 9.8037 13.8801 9.8037 14.0325C9.8037 14.1849 9.86181 14.3316 9.96617 14.4427C10.0705 14.5537 10.2133 14.6208 10.3654 14.6303C10.4344 14.6333 10.5031 14.6198 10.5657 14.5908C10.6283 14.5619 10.6831 14.5183 10.7254 14.4638V14.6018H10.9729V14.0321ZM10.0479 14.0321C10.0518 13.965 10.0752 13.9005 10.1154 13.8465C10.1555 13.7926 10.2105 13.7516 10.2737 13.7285C10.3368 13.7054 10.4054 13.7014 10.4708 13.7168C10.5363 13.7322 10.5958 13.7664 10.642 13.8152C10.6882 13.864 10.7192 13.9253 10.731 13.9915C10.7429 14.0577 10.7351 14.1259 10.7086 14.1877C10.6822 14.2495 10.6382 14.3023 10.5822 14.3394C10.5261 14.3765 10.4604 14.3965 10.3932 14.3967C10.3466 14.3959 10.3007 14.3856 10.2583 14.3664C10.2159 14.3472 10.1779 14.3195 10.1465 14.2851C10.1152 14.2507 10.0912 14.2102 10.0761 14.1662C10.061 14.1221 10.0551 14.0755 10.0587 14.029L10.0479 14.0321Z" fill="black"/>
<path d="M15.8737 4.78613H12.1221V11.5286H15.8737V4.78613Z" fill="#FF5F00"/>
<path d="M12.3602 8.15816C12.3597 7.5086 12.5071 6.86745 12.7912 6.2833C13.0753 5.69914 13.4886 5.18729 13.9998 4.78654C13.3672 4.28927 12.6074 3.98002 11.8074 3.89413C11.0074 3.80824 10.1993 3.94918 9.4756 4.30083C8.75188 4.65248 8.1417 5.20066 7.71481 5.8827C7.28791 6.56475 7.06152 7.35315 7.06152 8.15778C7.06152 8.96241 7.28791 9.7508 7.71481 10.4329C8.1417 11.1149 8.75188 11.6631 9.4756 12.0147C10.1993 12.3664 11.0074 12.5073 11.8074 12.4214C12.6074 12.3355 13.3672 12.0263 13.9998 11.529C13.4887 11.1283 13.0754 10.6166 12.7914 10.0326C12.5073 9.44859 12.3599 8.8076 12.3602 8.15816Z" fill="#EB001B"/>
<path d="M20.9375 8.15792C20.9376 8.96251 20.7113 9.7509 20.2845 10.433C19.8577 11.115 19.2475 11.6632 18.5238 12.0148C17.8002 12.3664 16.9921 12.5073 16.1921 12.4214C15.3921 12.3354 14.6325 12.0261 14 11.5288C14.5104 11.1275 14.9231 10.6156 15.2069 10.0316C15.4906 9.44761 15.6381 8.80681 15.6381 8.15753C15.6381 7.50825 15.4906 6.86745 15.2069 6.28347C14.9231 5.69948 14.5104 5.18755 14 4.78629C14.6325 4.28895 15.3921 3.97963 16.1921 3.89368C16.9921 3.80773 17.8002 3.94862 18.5238 4.30025C19.2475 4.65189 19.8577 5.20006 20.2845 5.88211C20.7113 6.56416 20.9376 7.35255 20.9375 8.15715V8.15792Z" fill="#F79E1B"/>
<path d="M25.5625 0.770833C25.9714 0.770833 26.3635 0.933258 26.6526 1.22238C26.9417 1.5115 27.1042 1.90362 27.1042 2.3125V16.1875C27.1042 16.5964 26.9417 16.9885 26.6526 17.2776C26.3635 17.5667 25.9714 17.7292 25.5625 17.7292H2.4375C2.02862 17.7292 1.6365 17.5667 1.34738 17.2776C1.05826 16.9885 0.895833 16.5964 0.895833 16.1875V2.3125C0.895833 1.90362 1.05826 1.5115 1.34738 1.22238C1.6365 0.933258 2.02862 0.770833 2.4375 0.770833H25.5625ZM25.5625 0H2.4375C1.82475 0.00183003 1.23762 0.246055 0.804337 0.679337C0.371055 1.11262 0.12683 1.69975 0.125 2.3125L0.125 16.1875C0.12683 16.8002 0.371055 17.3874 0.804337 17.8207C1.23762 18.2539 1.82475 18.4982 2.4375 18.5H25.5625C26.1752 18.4982 26.7624 18.2539 27.1957 17.8207C27.6289 17.3874 27.8732 16.8002 27.875 16.1875V2.3125C27.8732 1.69975 27.6289 1.11262 27.1957 0.679337C26.7624 0.246055 26.1752 0.00183003 25.5625 0Z" fill="#DDDDDD"/>
</g>
<defs>
<clipPath id="clip0_179527_10248">
<rect width="27.75" height="18.5" fill="white" transform="translate(0.125)"/>
</clipPath>
</defs>
</svg>
