<svg width="28" height="19" viewBox="0 0 28 19" fill="none" xmlns="http://www.w3.org/2000/svg">
<g clip-path="url(#clip0_179527_10273)">
<path d="M2.43717 1.021H25.5622C26.4101 1.021 27.1038 1.71475 27.1038 2.56266V16.4377C27.1038 17.2856 26.4101 17.9793 25.5622 17.9793H2.43717C1.58926 17.9793 0.895508 17.2856 0.895508 16.4377V2.56266C0.895508 1.71475 1.58926 1.021 2.43717 1.021Z" fill="white"/>
<path d="M25.5625 1.02083C26.4104 1.02083 27.1042 1.71458 27.1042 2.5625V16.4375C27.1042 17.2854 26.4104 17.9792 25.5625 17.9792H2.4375C1.58958 17.9792 0.895833 17.2854 0.895833 16.4375V2.5625C0.895833 1.71458 1.58958 1.02083 2.4375 1.02083H25.5625ZM25.5625 0.25H2.4375C1.12708 0.25 0.125 1.25208 0.125 2.5625V16.4375C0.125 17.7479 1.12708 18.75 2.4375 18.75H25.5625C26.8729 18.75 27.875 17.7479 27.875 16.4375V2.5625C27.875 1.25208 26.8729 0.25 25.5625 0.25Z" fill="#DDDDDD"/>
<path d="M10.8393 8.03564H9.60592C9.52884 8.03564 9.45176 8.11273 9.45176 8.18981L8.98926 11.2731C8.98926 11.3502 8.98926 11.4273 9.06634 11.4273H9.60592C9.68301 11.4273 9.76009 11.3502 9.76009 11.2731L9.91426 10.4252C9.91426 10.3481 9.99134 10.2711 10.0684 10.2711H10.4538C11.2247 10.2711 11.6872 9.88564 11.8413 9.11481C11.9184 8.80648 11.8413 8.49814 11.6872 8.34398C11.6101 8.11273 11.3018 8.03564 10.8393 8.03564ZM10.9934 9.19189C10.9163 9.65439 10.608 9.65439 10.2997 9.65439H10.1455L10.2997 8.88356C10.2997 8.80648 10.3768 8.80648 10.3768 8.80648H10.4538C10.6851 8.80648 10.8393 8.80648 10.9934 8.96064C10.9934 8.88356 11.0705 9.03773 10.9934 9.19189ZM14.4622 9.11481H13.9226C13.8455 9.11481 13.8455 9.11481 13.8455 9.19189V9.34606L13.7684 9.26898C13.6143 9.11481 13.383 9.03773 13.0747 9.03773C12.458 9.03773 11.9184 9.50023 11.7643 10.194C11.6872 10.5023 11.7643 10.8877 11.9955 11.0419C12.1497 11.2731 12.458 11.3502 12.6893 11.3502C13.2288 11.3502 13.4601 11.0419 13.4601 11.0419V11.1961C13.4601 11.2731 13.4601 11.3502 13.5372 11.3502H14.0768C14.1538 11.3502 14.2309 11.2731 14.2309 11.1961L14.5393 9.19189C14.5393 9.19189 14.5393 9.11481 14.4622 9.11481ZM13.6913 10.2711C13.6143 10.5794 13.383 10.8106 13.0747 10.8106C12.9205 10.8106 12.7663 10.7336 12.6893 10.6565C12.6122 10.5794 12.5351 10.4252 12.6122 10.2711C12.6893 9.96273 12.9205 9.73148 13.2288 9.73148C13.383 9.73148 13.5372 9.80856 13.6143 9.88564C13.6913 9.96273 13.6913 10.1169 13.6913 10.2711ZM17.5455 9.11481H16.9288C16.8518 9.11481 16.8518 9.11481 16.7747 9.19189L16.0038 10.3481L15.6955 9.19189C15.6955 9.11481 15.6184 9.03773 15.5413 9.03773H15.0018C14.9247 9.03773 14.8476 9.11481 14.9247 9.19189L15.5413 11.0419L14.9247 11.8898C14.8476 11.9669 14.9247 12.044 15.0018 12.044H15.5413C15.6184 12.044 15.6184 12.044 15.6955 11.9669L17.6226 9.19189C17.6997 9.26898 17.6226 9.11481 17.5455 9.11481Z" fill="#253B80"/>
<path d="M19.473 8.03564H18.2397C18.1626 8.03564 18.0855 8.11273 18.0855 8.18981L17.623 11.2731C17.623 11.3502 17.623 11.4273 17.7001 11.4273H18.3168C18.3939 11.4273 18.3939 11.3502 18.3939 11.3502L18.548 10.5023C18.548 10.4252 18.6251 10.3481 18.7022 10.3481H19.0876C19.8585 10.3481 20.321 9.96273 20.4751 9.19189C20.5522 8.88356 20.4751 8.57523 20.321 8.42106C20.1668 8.11273 19.8585 8.03564 19.473 8.03564ZM19.5501 9.19189C19.473 9.65439 19.1647 9.65439 18.8564 9.65439H18.7022L18.8564 8.88356C18.8564 8.80648 18.9335 8.80648 18.9335 8.80648H19.0105C19.2418 8.80648 19.396 8.80648 19.5501 8.96064C19.6272 8.88356 19.6272 9.03773 19.5501 9.19189ZM23.0189 9.11481H22.4793C22.4022 9.11481 22.4022 9.11481 22.4022 9.19189V9.34606L22.3251 9.26898C22.171 9.11481 21.9397 9.03773 21.6314 9.03773C21.0147 9.03773 20.4751 9.50023 20.321 10.194C20.2439 10.5023 20.321 10.8877 20.5522 11.0419C20.7064 11.2731 21.0147 11.3502 21.246 11.3502C21.7855 11.3502 22.0168 11.0419 22.0168 11.0419V11.1961C22.0168 11.2731 22.0168 11.3502 22.0939 11.3502H22.6335C22.7105 11.3502 22.7876 11.2731 22.7876 11.1961L23.096 9.19189C23.173 9.19189 23.096 9.11481 23.0189 9.11481ZM22.248 10.2711C22.171 10.5794 21.9397 10.8106 21.6314 10.8106C21.4772 10.8106 21.323 10.7336 21.246 10.6565C21.1689 10.5794 21.0918 10.4252 21.1689 10.2711C21.246 9.96273 21.4772 9.73148 21.7855 9.73148C21.9397 9.73148 22.0939 9.80856 22.171 9.88564C22.248 9.96273 22.248 10.1169 22.248 10.2711ZM23.7126 8.11273L23.2501 11.2731C23.2501 11.3502 23.2501 11.4273 23.3272 11.4273H23.7897C23.8668 11.4273 23.9439 11.3502 23.9439 11.2731L24.4064 8.18981C24.4064 8.11273 24.4064 8.03564 24.3293 8.03564H23.7897C23.7897 8.03564 23.7126 8.03564 23.7126 8.11273Z" fill="#179BD7"/>
<path d="M4.05664 11.9665L4.13372 11.3499H2.90039L3.59414 7.0332H5.21289C5.75247 7.0332 6.13789 7.11029 6.36914 7.34154C6.44622 7.41862 6.52331 7.57279 6.52331 7.64987V8.26654L6.60039 8.34362C6.67747 8.4207 6.75456 8.4207 6.75456 8.49779C6.98581 8.57487 7.06289 8.72904 7.06289 8.80612V9.26862C6.98581 9.49987 6.98581 9.65404 6.83164 9.8082C6.75456 9.96237 6.67747 10.0395 6.52331 10.1936C6.36914 10.2707 6.29206 10.3478 6.06081 10.4249C5.90664 10.502 5.75247 10.502 5.52122 10.502H5.44414C5.36706 10.502 5.28997 10.502 5.21289 10.579C5.13581 10.6561 5.05872 10.7332 5.05872 10.8103V10.8874L4.90456 11.8895C4.82747 11.9665 4.05664 11.9665 4.05664 11.9665Z" fill="#253B80"/>
<path d="M6.83144 8.18945V8.26654C6.60019 9.3457 5.90645 9.73112 4.90436 9.73112H4.36478C4.21061 9.73112 4.13353 9.8082 4.13353 9.96237L3.90228 11.504L3.8252 11.9665C3.8252 12.0436 3.90228 12.1207 3.97936 12.1207H4.82728C4.90436 12.1207 4.98145 12.0436 5.05853 11.9665V11.8895L5.2127 10.8874V10.8103C5.2127 10.7332 5.28978 10.6561 5.44395 10.6561H5.52103C6.36895 10.6561 6.98561 10.3478 7.21686 9.3457C7.29394 8.96029 7.21686 8.57487 7.0627 8.34362C6.98561 8.26654 6.90853 8.26654 6.83144 8.18945Z" fill="#179BD7"/>
<path d="M6.59954 8.1123H6.52246H4.67246H4.59538C4.51829 8.1123 4.51829 8.18939 4.51829 8.26647L4.20996 10.0394V10.1165C4.20996 10.0394 4.36413 9.88522 4.44121 9.88522H4.90371C5.82871 9.88522 6.59954 9.49981 6.83079 8.42064V8.34355C6.75371 8.18939 6.67663 8.1123 6.59954 8.1123Z" fill="#222D65"/>
<path d="M4.44193 8.18981C4.44193 8.11273 4.51901 8.03564 4.51901 8.03564H6.60026C6.67734 8.03564 6.75443 8.11273 6.75443 8.11273C6.83151 7.72731 6.75443 7.41898 6.52318 7.18773C6.36901 6.95648 5.90651 6.87939 5.28984 6.87939H3.67109C3.51693 6.87939 3.43984 6.95648 3.43984 7.11064L2.74609 11.4273C2.74609 11.5044 2.82318 11.5815 2.90026 11.5815H3.90234L4.13359 9.96273L4.44193 8.18981Z" fill="#253B80"/>
</g>
<defs>
<clipPath id="clip0_179527_10273">
<rect width="27.75" height="18.5" fill="white" transform="translate(0.125 0.25)"/>
</clipPath>
</defs>
</svg>
