<svg width="28" height="19" viewBox="0 0 28 19" fill="none" xmlns="http://www.w3.org/2000/svg">
<path d="M25.5622 1.021H2.43717C1.58574 1.021 0.895508 1.71122 0.895508 2.56266V16.4377C0.895508 17.2891 1.58574 17.9793 2.43717 17.9793H25.5622C26.4136 17.9793 27.1038 17.2891 27.1038 16.4377V2.56266C27.1038 1.71122 26.4136 1.021 25.5622 1.021Z" fill="white"/>
<path d="M25.5625 1.02083C25.9714 1.02083 26.3635 1.18326 26.6526 1.47238C26.9417 1.7615 27.1042 2.15362 27.1042 2.5625V16.4375C27.1042 16.8464 26.9417 17.2385 26.6526 17.5276C26.3635 17.8167 25.9714 17.9792 25.5625 17.9792H2.4375C2.02862 17.9792 1.6365 17.8167 1.34738 17.5276C1.05826 17.2385 0.895833 16.8464 0.895833 16.4375V2.5625C0.895833 2.15362 1.05826 1.7615 1.34738 1.47238C1.6365 1.18326 2.02862 1.02083 2.4375 1.02083H25.5625ZM25.5625 0.25H2.4375C1.82419 0.25 1.23599 0.493638 0.802316 0.927316C0.368638 1.36099 0.125 1.94919 0.125 2.5625L0.125 16.4375C0.125 17.0508 0.368638 17.639 0.802316 18.0727C1.23599 18.5064 1.82419 18.75 2.4375 18.75H25.5625C26.1758 18.75 26.764 18.5064 27.1977 18.0727C27.6314 17.639 27.875 17.0508 27.875 16.4375V2.5625C27.875 1.94919 27.6314 1.36099 27.1977 0.927316C26.764 0.493638 26.1758 0.25 25.5625 0.25Z" fill="#DDDDDD"/>
<path d="M12.959 10.2706C12.5558 10.2733 12.1584 10.1753 11.8027 9.9854L11.9107 9.25311C12.2282 9.43268 12.5864 9.5282 12.9513 9.53061C13.3598 9.53061 13.5371 9.37644 13.5371 9.11436C13.5371 8.52081 11.8182 8.77519 11.8182 7.50331C11.8182 6.86352 12.2267 6.33936 13.1748 6.33936C13.5336 6.34087 13.8891 6.40882 14.2232 6.53977L14.1152 7.25665C13.83 7.15572 13.5311 7.09854 13.2288 7.08706C12.7663 7.08706 12.6429 7.24894 12.6429 7.44936C12.6429 8.0429 14.3619 7.77311 14.3619 9.05269C14.3619 9.82352 13.8454 10.2629 12.9744 10.2629" fill="#005DA0"/>
<path d="M17.5916 9.44616V10.1939H15.0479V6.40137H17.5916V7.15678H15.8881V7.90449H17.2679V8.58283H15.8881V9.44616H17.5916Z" fill="#005DA0"/>
<path d="M19.6733 7.11025H19.1799V8.27421H19.6733C20.0895 8.27421 20.2668 8.1663 20.2668 7.68838C20.2668 7.21046 20.1127 7.11025 19.6733 7.11025ZM19.6733 8.95255H19.1799V10.1859H18.332V6.4165H19.6733C20.7139 6.4165 21.1379 6.83275 21.1379 7.7115C21.1379 8.59025 20.7216 8.97567 19.6733 8.97567" fill="#005DA0"/>
<path d="M22.9266 7.44171L22.5566 8.729H23.5124L23.1502 7.4263L23.0499 7.02546L22.9266 7.44171ZM23.6974 9.45359H22.3485L22.1404 10.2244H21.2539L22.5489 6.4165H23.551L24.8614 10.209H23.921L23.6974 9.45359Z" fill="#005DA0"/>
<path d="M6.78463 9.392H6.73067H6.66901L5.71317 8.62117L4.42588 7.69617L3.46234 6.96388C3.45873 6.95534 3.45688 6.94617 3.45688 6.9369C3.45688 6.92763 3.45873 6.91846 3.46234 6.90992C3.4546 6.89009 3.4546 6.86808 3.46234 6.84825L3.72442 6.50138C3.72442 6.50138 4.01734 6.12367 4.26401 5.77679L5.32776 6.60159L6.49942 7.49575L7.5863 8.32054L7.06213 9.03742L6.78463 9.392ZM4.97317 4.92888L5.92901 5.64575L6.57651 6.13138L7.22401 6.62471L8.17984 7.39554C8.18804 7.40278 8.19461 7.41167 8.19911 7.42164C8.20361 7.43161 8.20594 7.44242 8.20594 7.45336C8.20594 7.46429 8.20361 7.4751 8.19911 7.48507C8.19461 7.49504 8.18804 7.50394 8.17984 7.51117L7.94859 7.82721L6.88484 6.97929L5.70546 6.09284L4.6263 5.26804L4.85755 4.94429C4.86478 4.93609 4.87368 4.92952 4.88364 4.92502C4.89361 4.92052 4.90442 4.9182 4.91536 4.9182C4.9263 4.9182 4.93711 4.92052 4.94707 4.92502C4.95704 4.92952 4.96594 4.93609 4.97317 4.94429V4.92888ZM8.28776 7.24138L6.68442 6.00804L5.07338 4.78242C5.02308 4.74926 4.96238 4.73566 4.90274 4.74418C4.8431 4.7527 4.78864 4.78275 4.74963 4.82867L3.30817 6.74034C3.28515 6.76967 3.26931 6.80399 3.26192 6.84054C3.25148 6.88968 3.25457 6.94072 3.27086 6.98823C3.28715 7.03575 3.31603 7.07795 3.35442 7.11034L4.31026 7.83492L5.60526 8.82159L6.56109 9.54617C6.61563 9.58711 6.68397 9.60518 6.75162 9.59654C6.81926 9.58791 6.88088 9.55325 6.92338 9.49992L8.34171 7.59596C8.38181 7.54049 8.39861 7.47153 8.38853 7.40382C8.37845 7.33612 8.34228 7.27505 8.28776 7.23367V7.24138Z" fill="#AEB1BC"/>
<path d="M3.08487 14.1249L4.21029 10.3093H7.29362L7.03154 10.6639L6.65383 11.1957L6.60758 11.2728L6.56904 11.3653L6.53049 11.4655L6.48424 11.5734L6.4457 11.6968L6.38404 11.8124V11.928L6.29154 12.0436V12.1516V12.2518V12.3443V12.4214V12.4753V12.5139C6.29154 12.5139 6.23758 12.5678 6.19904 12.5139C6.16049 12.4599 6.19904 12.3905 6.19904 12.3443V11.9203C6.19736 11.9045 6.19033 11.8898 6.1791 11.8786C6.16788 11.8674 6.15315 11.8603 6.13737 11.8586C5.99138 11.948 5.86751 12.0692 5.77508 12.2132V12.1207C5.82176 11.9739 5.86036 11.8247 5.8907 11.6736C5.8907 11.5889 5.8907 11.4886 5.78279 11.4732C5.67487 11.4578 5.60549 11.5734 5.55154 11.6505C5.41531 11.9178 5.26077 12.1754 5.08904 12.4214C5.05688 12.4625 5.01379 12.4937 4.96471 12.5114C4.91562 12.5291 4.86253 12.5326 4.81154 12.5216C4.6882 12.5216 4.64195 12.6372 4.86549 12.6603C5.08904 12.6834 5.25091 12.4445 5.35112 12.2749C5.45133 12.1053 5.48216 12.0359 5.55924 11.9126C5.54286 11.8596 5.52998 11.8055 5.5207 11.7507C5.5207 11.7507 5.56695 11.6582 5.59779 11.6582C5.58802 11.7295 5.56991 11.7993 5.54383 11.8664L5.5207 12.1284L5.38966 12.5832C5.38738 12.5919 5.38702 12.6009 5.3886 12.6098C5.39017 12.6186 5.39365 12.6269 5.39878 12.6343C5.40392 12.6416 5.41059 12.6477 5.41833 12.6522C5.42607 12.6567 5.4347 12.6595 5.44362 12.6603C5.4532 12.6651 5.46376 12.6675 5.47445 12.6675C5.48515 12.6675 5.4957 12.6651 5.50529 12.6603C5.62201 12.4511 5.7673 12.2591 5.93695 12.0899V12.2441C5.93695 12.3289 5.93695 12.4059 5.93695 12.4907C5.93695 12.5755 6.05258 12.722 6.17591 12.6603C6.21785 12.6401 6.25676 12.6142 6.29154 12.5832H6.33779L6.40716 12.537L6.48424 12.483L6.56133 12.4214L6.66154 12.352L6.75404 12.2826L6.85424 12.2132L6.95445 12.1361L7.06237 12.0051L7.14716 11.9357L7.23195 11.8664L7.2782 11.8124L7.33987 11.7584H7.37841L7.67904 11.3961L8.44987 10.3478H9.82195L10.9165 14.1249H3.08487ZM8.60404 10.1397L11.0245 6.86365L11.2711 6.53219C11.276 6.52785 11.28 6.52251 11.2827 6.51653C11.2854 6.51055 11.2868 6.50406 11.2868 6.4975C11.2868 6.49094 11.2854 6.48445 11.2827 6.47847C11.28 6.47249 11.276 6.46715 11.2711 6.46281L10.5851 5.96177C10.5741 5.95301 10.5605 5.94824 10.5465 5.94824C10.5325 5.94824 10.5189 5.95301 10.508 5.96177L10.4155 6.0851L7.39383 10.1474H4.09466L2.86133 14.2714H11.1092L9.94529 10.1474L8.60404 10.1397Z" fill="#005DA0"/>
<path d="M6.93098 13.3002H9.22035L9.1741 13.1152H6.93098H4.68785L4.6416 13.3002H6.93098Z" fill="#005DA0"/>
<path d="M11.8262 11.4039C11.9981 11.3907 12.1707 11.3907 12.3426 11.4039C12.5824 11.3834 12.8219 11.446 13.021 11.5812C13.1146 11.657 13.1891 11.7536 13.2387 11.8634C13.2882 11.9731 13.3113 12.093 13.3062 12.2133C13.3135 12.3388 13.2924 12.4643 13.2443 12.5805C13.1963 12.6966 13.1226 12.8004 13.0287 12.8839C12.8064 13.0475 12.5332 13.1267 12.2578 13.1075C12.1142 13.1193 11.9698 13.1193 11.8262 13.1075V11.4039ZM12.2039 12.7683H12.3426C12.4205 12.7761 12.4991 12.7661 12.5725 12.739C12.6459 12.712 12.7122 12.6686 12.7664 12.6122C12.8206 12.5557 12.8612 12.4878 12.8853 12.4133C12.9094 12.3389 12.9162 12.2599 12.9053 12.1825C12.9138 12.1113 12.9062 12.039 12.8829 11.9712C12.8597 11.9033 12.8215 11.8416 12.7712 11.7905C12.7208 11.7394 12.6596 11.7003 12.5921 11.6761C12.5246 11.6519 12.4525 11.6432 12.3812 11.6506H12.2039V12.7683Z" fill="#005DA0"/>
<path d="M13.9388 11.5044C13.9403 11.5443 13.9299 11.5838 13.9088 11.6178C13.8877 11.6517 13.857 11.6786 13.8205 11.695C13.7841 11.7113 13.7436 11.7164 13.7042 11.7096C13.6648 11.7027 13.6284 11.6843 13.5996 11.6566C13.5708 11.6289 13.5509 11.5932 13.5425 11.5541C13.5342 11.5151 13.5377 11.4744 13.5526 11.4373C13.5675 11.4002 13.5931 11.3685 13.6262 11.3461C13.6594 11.3237 13.6984 11.3117 13.7384 11.3117C13.7646 11.3095 13.791 11.3129 13.8158 11.3217C13.8406 11.3305 13.8632 11.3444 13.8822 11.3627C13.9012 11.3809 13.916 11.403 13.9258 11.4274C13.9355 11.4519 13.94 11.4781 13.9388 11.5044ZM13.5456 13.0461V11.8127H13.9234V13.0229L13.5456 13.0461Z" fill="#005DA0"/>
<path d="M14.2235 12.2442C14.2235 12.0592 14.2235 11.9435 14.2235 11.8433H14.5473V12.0669C14.5695 11.9954 14.6133 11.9326 14.6726 11.8871C14.732 11.8415 14.804 11.8155 14.8787 11.8125H14.9558V12.1671H14.8556C14.796 12.1619 14.7365 12.1787 14.6883 12.2141C14.6401 12.2496 14.6064 12.3013 14.5935 12.3598C14.5935 12.3598 14.5935 12.4138 14.5935 12.4369V13.0535H14.2158L14.2235 12.2442Z" fill="#005DA0"/>
<path d="M15.441 12.5836C15.441 12.7377 15.6029 12.8148 15.7802 12.8148C15.8949 12.8162 16.0092 12.8006 16.1194 12.7686L16.1656 13.0229C16.0243 13.0715 15.8756 13.095 15.7262 13.0923C15.6414 13.1028 15.5552 13.0943 15.474 13.0675C15.3928 13.0407 15.3185 12.9962 15.2566 12.9372C15.1946 12.8782 15.1466 12.8062 15.1158 12.7264C15.0851 12.6466 15.0724 12.5609 15.0787 12.4756C15.0735 12.3925 15.0853 12.3091 15.1136 12.2307C15.1418 12.1524 15.1858 12.0806 15.2429 12.0199C15.3 11.9592 15.3689 11.9109 15.4454 11.8779C15.5219 11.8449 15.6044 11.828 15.6877 11.8281C15.7651 11.8276 15.8417 11.8436 15.9124 11.8748C15.9832 11.9061 16.0465 11.952 16.0982 12.0096C16.15 12.0671 16.1889 12.135 16.2125 12.2087C16.236 12.2824 16.2437 12.3602 16.235 12.4371C16.241 12.4857 16.241 12.5349 16.235 12.5836H15.441ZM15.8804 12.3292C15.8848 12.299 15.8827 12.2682 15.8743 12.2389C15.8659 12.2096 15.8514 12.1824 15.8318 12.1591C15.8121 12.1358 15.7877 12.1169 15.7602 12.1037C15.7327 12.0905 15.7028 12.0833 15.6723 12.0825C15.6088 12.0863 15.5491 12.1138 15.5049 12.1594C15.4607 12.2051 15.4351 12.2656 15.4333 12.3292H15.8804Z" fill="#005DA0"/>
<path d="M17.3682 13.0228C17.2596 13.0622 17.1445 13.0805 17.029 13.0768C16.9447 13.086 16.8594 13.0767 16.7792 13.0493C16.6989 13.0219 16.6257 12.9772 16.5646 12.9184C16.5036 12.8595 16.4562 12.788 16.4259 12.7088C16.3956 12.6296 16.3831 12.5447 16.3892 12.4601C16.3866 12.3704 16.4031 12.2811 16.4377 12.1982C16.4723 12.1154 16.5241 12.0408 16.5898 11.9796C16.6554 11.9183 16.7333 11.8717 16.8184 11.8429C16.9034 11.8142 16.9936 11.8038 17.083 11.8126C17.1797 11.8148 17.2757 11.8304 17.3682 11.8589L17.3065 12.1441C17.2382 12.1271 17.1667 12.1271 17.0984 12.1441C17.0084 12.1441 16.9222 12.1798 16.8586 12.2434C16.795 12.307 16.7592 12.3933 16.7592 12.4832C16.7592 12.5732 16.795 12.6595 16.8586 12.7231C16.9222 12.7867 17.0084 12.8224 17.0984 12.8224C17.1722 12.8245 17.2457 12.8113 17.3142 12.7839L17.3682 13.0228Z" fill="#005DA0"/>
<path d="M18.0319 11.4966V11.8126H18.3094V12.0901H18.0319V12.5835C18.0319 12.7299 18.0704 12.7993 18.186 12.7993H18.294V13.0845C18.2124 13.0989 18.1289 13.0989 18.0473 13.0845C17.9428 13.0896 17.8404 13.0536 17.7621 12.9843C17.7212 12.934 17.6906 12.8761 17.672 12.8139C17.6535 12.7517 17.6475 12.6865 17.6542 12.622V12.121H17.5V11.8126H17.6542V11.5814L18.0319 11.4966Z" fill="#005DA0"/>
<path d="M19.0332 11.4038C19.2025 11.3908 19.3726 11.3908 19.542 11.4038C19.7842 11.3821 20.0266 11.4447 20.228 11.581C20.3216 11.6568 20.3962 11.7534 20.4457 11.8632C20.4952 11.973 20.5183 12.0928 20.5132 12.2131C20.5206 12.3386 20.4994 12.4641 20.4514 12.5803C20.4033 12.6964 20.3296 12.8002 20.2357 12.8837C20.0134 13.0473 19.7402 13.1265 19.4649 13.1073C19.3212 13.1192 19.1768 13.1192 19.0332 13.1073V11.4038ZM19.3955 12.7681H19.5265C19.605 12.7772 19.6845 12.7681 19.7589 12.7416C19.8333 12.7151 19.9006 12.6719 19.9557 12.6154C20.0108 12.5588 20.0521 12.4903 20.0766 12.4152C20.1011 12.3402 20.1081 12.2605 20.097 12.1823C20.1054 12.1111 20.0978 12.0389 20.0746 11.971C20.0513 11.9031 20.0131 11.8414 19.9628 11.7903C19.9124 11.7392 19.8512 11.7001 19.7837 11.6759C19.7162 11.6517 19.6441 11.643 19.5728 11.6504H19.3955V12.7681Z" fill="#005DA0"/>
<path d="M21.0377 12.5831C21.0377 12.7373 21.1996 12.8144 21.3769 12.8144C21.4916 12.8163 21.606 12.8007 21.716 12.7681L21.7623 13.0225C21.621 13.0711 21.4723 13.0946 21.3229 13.0919C21.238 13.1024 21.1519 13.0939 21.0707 13.0671C20.9894 13.0403 20.9152 12.9957 20.8532 12.9368C20.7913 12.8778 20.7432 12.8058 20.7125 12.726C20.6817 12.6461 20.6691 12.5605 20.6754 12.4752C20.6701 12.3914 20.6822 12.3074 20.7109 12.2285C20.7396 12.1496 20.7843 12.0774 20.8422 12.0166C20.9001 11.9558 20.97 11.9076 21.0474 11.8751C21.1248 11.8426 21.2081 11.8265 21.2921 11.8277C21.3692 11.8271 21.4455 11.8429 21.516 11.8743C21.5864 11.9056 21.6493 11.9517 21.7004 12.0094C21.7516 12.0671 21.7897 12.1351 21.8124 12.2088C21.835 12.2825 21.8416 12.3602 21.8317 12.4367C21.8376 12.4853 21.8376 12.5345 21.8317 12.5831H21.0377ZM21.4771 12.3287C21.4815 12.2986 21.4794 12.2678 21.471 12.2385C21.4626 12.2092 21.4481 12.182 21.4284 12.1587C21.4088 12.1354 21.3844 12.1165 21.3569 12.1033C21.3294 12.0901 21.2994 12.0829 21.269 12.0821C21.2063 12.086 21.1474 12.1137 21.1044 12.1596C21.0615 12.2054 21.0376 12.2659 21.0377 12.3287H21.4771Z" fill="#005DA0"/>
<path d="M22.04 13.0534C22.04 12.9763 22.04 12.8299 22.04 12.6911V11.2959H22.4177V11.9896C22.4599 11.9317 22.5157 11.8852 22.5803 11.8542C22.6449 11.8233 22.7162 11.8089 22.7877 11.8124C23.0807 11.8124 23.2888 12.059 23.2888 12.429C23.2984 12.509 23.2914 12.5902 23.2683 12.6674C23.2451 12.7446 23.2063 12.8162 23.1542 12.8777C23.1021 12.9392 23.0379 12.9892 22.9655 13.0248C22.8932 13.0603 22.8143 13.0806 22.7338 13.0842C22.6609 13.087 22.5886 13.0697 22.5248 13.0344C22.4609 12.9991 22.4079 12.947 22.3715 12.8838V13.0534H22.04ZM22.4332 12.5369C22.4458 12.5549 22.4615 12.5705 22.4794 12.5832C22.4899 12.6329 22.517 12.6775 22.5562 12.7097C22.5955 12.7419 22.6445 12.7598 22.6952 12.7605C22.8571 12.7605 22.9573 12.6371 22.9573 12.4213C22.9573 12.2055 22.8725 12.0821 22.6952 12.0821C22.6438 12.0846 22.5946 12.1041 22.5555 12.1376C22.5165 12.1711 22.4897 12.2167 22.4794 12.2671C22.4757 12.2901 22.4757 12.3135 22.4794 12.3365L22.4332 12.5369Z" fill="#005DA0"/>
<path d="M23.9205 11.5044C23.9217 11.5307 23.9172 11.5569 23.9075 11.5814C23.8977 11.6058 23.8829 11.6279 23.8639 11.6461C23.8449 11.6644 23.8223 11.6783 23.7975 11.6871C23.7727 11.6959 23.7463 11.6993 23.7201 11.6971C23.6689 11.6971 23.6199 11.6768 23.5838 11.6407C23.5476 11.6045 23.5273 11.5555 23.5273 11.5044C23.5273 11.4533 23.5476 11.4043 23.5838 11.3681C23.6199 11.332 23.6689 11.3117 23.7201 11.3117C23.7463 11.3095 23.7727 11.3129 23.7975 11.3217C23.8223 11.3305 23.8449 11.3444 23.8639 11.3627C23.8829 11.3809 23.8977 11.403 23.9075 11.4274C23.9172 11.4519 23.9217 11.4781 23.9205 11.5044ZM23.5351 13.0461V11.8127H23.9128V13.0229L23.5351 13.0461Z" fill="#005DA0"/>
<path d="M24.6373 11.4966V11.8126H24.9071V12.0901H24.6373V12.5835C24.6373 12.7299 24.6373 12.7993 24.7838 12.7993H24.8994V13.0845C24.8179 13.0994 24.7343 13.0994 24.6528 13.0845C24.5483 13.0896 24.4459 13.0536 24.3676 12.9843C24.2876 12.8815 24.2516 12.7513 24.2673 12.622V12.121H24.1055V11.8126H24.2673V11.5814L24.6373 11.4966Z" fill="#005DA0"/>
</svg>
