<svg width="18" height="14" viewBox="0 0 18 14" fill="none" xmlns="http://www.w3.org/2000/svg">
<path d="M15.875 0.125H2.125C1.79348 0.125 1.47554 0.256696 1.24112 0.491116C1.0067 0.725537 0.875 1.04348 0.875 1.375V12.625C0.875 12.9565 1.0067 13.2745 1.24112 13.5089C1.47554 13.7433 1.79348 13.875 2.125 13.875H15.875C16.2065 13.875 16.5245 13.7433 16.7589 13.5089C16.9933 13.2745 17.125 12.9565 17.125 12.625V1.375C17.125 1.04348 16.9933 0.725537 16.7589 0.491116C16.5245 0.256696 16.2065 0.125 15.875 0.125ZM15.875 12.625H2.125V1.375H15.875V12.625ZM12.75 3.875C12.75 4.86956 12.3549 5.82339 11.6517 6.52665C10.9484 7.22991 9.99456 7.625 9 7.625C8.00544 7.625 7.05161 7.22991 6.34835 6.52665C5.64509 5.82339 5.25 4.86956 5.25 3.875C5.25 3.70924 5.31585 3.55027 5.43306 3.43306C5.55027 3.31585 5.70924 3.25 5.875 3.25C6.04076 3.25 6.19973 3.31585 6.31694 3.43306C6.43415 3.55027 6.5 3.70924 6.5 3.875C6.5 4.53804 6.76339 5.17393 7.23223 5.64277C7.70107 6.11161 8.33696 6.375 9 6.375C9.66304 6.375 10.2989 6.11161 10.7678 5.64277C11.2366 5.17393 11.5 4.53804 11.5 3.875C11.5 3.70924 11.5658 3.55027 11.6831 3.43306C11.8003 3.31585 11.9592 3.25 12.125 3.25C12.2908 3.25 12.4497 3.31585 12.5669 3.43306C12.6842 3.55027 12.75 3.70924 12.75 3.875Z" fill="white"/>
</svg>
