<svg width="24" height="24" viewBox="0 0 24 24" fill="none" xmlns="http://www.w3.org/2000/svg">
<path d="M20.5723 6.64621H16.9294V6.21763C16.9294 3.49621 14.7223 1.28906 12.0008 1.28906C9.27941 1.28906 7.07227 3.49621 7.07227 6.21763V6.64621H3.42941C2.9553 6.64621 2.57227 7.02924 2.57227 7.50335V21.8605C2.57227 22.3346 2.9553 22.7176 3.42941 22.7176H20.5723C21.0464 22.7176 21.4294 22.3346 21.4294 21.8605V7.50335C21.4294 7.02924 21.0464 6.64621 20.5723 6.64621ZM9.00084 6.21763C9.00084 4.5596 10.3428 3.21763 12.0008 3.21763C13.6589 3.21763 15.0008 4.5596 15.0008 6.21763V6.64621H9.00084V6.21763ZM19.5008 20.7891H4.50084V8.57478H7.07227V10.9319C7.07227 11.0498 7.16869 11.1462 7.28655 11.1462H8.78655C8.90441 11.1462 9.00084 11.0498 9.00084 10.9319V8.57478H15.0008V10.9319C15.0008 11.0498 15.0973 11.1462 15.2151 11.1462H16.7151C16.833 11.1462 16.9294 11.0498 16.9294 10.9319V8.57478H19.5008V20.7891Z" fill="black" fill-opacity="0.85"/>
</svg>
