<svg width="28" height="19" viewBox="0 0 28 19" fill="none" xmlns="http://www.w3.org/2000/svg">
<g clip-path="url(#clip0_179527_10260)">
<path d="M0.125 2.5625C0.125 1.28534 1.16034 0.25 2.4375 0.25H25.5625C26.8397 0.25 27.875 1.28534 27.875 2.5625V16.4375C27.875 17.7147 26.8397 18.75 25.5625 18.75H2.4375C1.16034 18.75 0.125 17.7147 0.125 16.4375V2.5625Z" fill="white"/>
<path fill-rule="evenodd" clip-rule="evenodd" d="M13.9174 6.85275L12.7841 12.1498H11.4139L12.5473 6.85275H13.9174ZM19.6825 10.2731L20.404 8.28388L20.8192 10.2731H19.6825ZM21.2114 12.1498H22.4788L21.3729 6.85275H20.2028C19.94 6.85275 19.7182 7.00569 19.6196 7.24137L17.5638 12.1498H19.0025L19.2883 11.3588H21.0463L21.2114 12.1498ZM17.6352 10.4203C17.641 9.02226 15.7016 8.94518 15.7152 8.32065C15.7192 8.13056 15.9002 7.92858 16.2962 7.87684C16.4929 7.85117 17.0336 7.83146 17.6475 8.11399L17.8879 6.99076C17.5582 6.87096 17.1338 6.75586 16.6062 6.75586C15.2518 6.75586 14.2984 7.47596 14.2904 8.50704C14.2819 9.26955 14.9708 9.69489 15.4902 9.9485C16.0239 10.2082 16.2033 10.3745 16.201 10.6066C16.1975 10.9623 15.7751 11.1189 15.3812 11.1252C14.692 11.136 14.2923 10.9392 13.9735 10.7906L13.7252 11.9512C14.0454 12.0984 14.6362 12.2261 15.2494 12.2327C16.6887 12.2327 17.6305 11.5214 17.6352 10.4203ZM11.9594 6.85275L9.7392 12.1498H8.2905L7.19813 7.92238C7.1317 7.66195 7.07408 7.56672 6.87223 7.45704C6.54326 7.27835 5.99919 7.11065 5.52051 7.00663L5.55325 6.85275H7.88481C8.18196 6.85275 8.44929 7.05051 8.51674 7.39274L9.09378 10.4582L10.5197 6.85275H11.9594Z" fill="#182E66"/>
<path fill-rule="evenodd" clip-rule="evenodd" d="M25.5625 1.02083H2.4375C1.58606 1.02083 0.895833 1.71106 0.895833 2.5625V16.4375C0.895833 17.289 1.58606 17.9792 2.4375 17.9792H25.5625C26.414 17.9792 27.1042 17.289 27.1042 16.4375V2.5625C27.1042 1.71106 26.414 1.02083 25.5625 1.02083ZM2.4375 0.25C1.16034 0.25 0.125 1.28534 0.125 2.5625V16.4375C0.125 17.7147 1.16034 18.75 2.4375 18.75H25.5625C26.8397 18.75 27.875 17.7147 27.875 16.4375V2.5625C27.875 1.28534 26.8397 0.25 25.5625 0.25H2.4375Z" fill="#DDDDDD"/>
</g>
<defs>
<clipPath id="clip0_179527_10260">
<rect width="27.75" height="18.5" fill="white" transform="translate(0.125 0.25)"/>
</clipPath>
</defs>
</svg>
